<svg xmlns="http://www.w3.org/2000/svg" xmlns:xlink="http://www.w3.org/1999/xlink" width="4166" zoomAndPan="magnify" viewBox="0 0 3124.5 3124.499946" height="4166" preserveAspectRatio="xMidYMid meet" version="1.0"><defs><g/><clipPath id="c90d1e2e64"><path d="M 1676.5 844.28125 L 1834.957031 844.28125 L 1834.957031 1002.734375 L 1676.5 1002.734375 Z M 1676.5 844.28125 " clip-rule="nonzero"/></clipPath><clipPath id="0d0cc3c8d0"><path d="M 1755.730469 844.28125 C 1711.972656 844.28125 1676.5 879.75 1676.5 923.507812 C 1676.5 967.265625 1711.972656 1002.734375 1755.730469 1002.734375 C 1799.484375 1002.734375 1834.957031 967.265625 1834.957031 923.507812 C 1834.957031 879.75 1799.484375 844.28125 1755.730469 844.28125 Z M 1755.730469 844.28125 " clip-rule="nonzero"/></clipPath><clipPath id="37bad0b15f"><path d="M 1156.777344 1132.992188 L 2546 1132.992188 L 2546 1481.222656 L 1156.777344 1481.222656 Z M 1156.777344 1132.992188 " clip-rule="nonzero"/></clipPath></defs><path fill="#ffffff" d="M 0 0 L 3124 0 L 3124 3124 L 0 3124 Z M 0 0 " fill-opacity="1" fill-rule="nonzero"/><path fill="#ffffff" d="M 0 0 L 3124 0 L 3124 3124 L 0 3124 Z M 0 0 " fill-opacity="1" fill-rule="nonzero"/><g clip-path="url(#c90d1e2e64)"><g clip-path="url(#0d0cc3c8d0)"><path fill="#f1a830" d="M 1676.5 844.28125 L 1834.957031 844.28125 L 1834.957031 1002.734375 L 1676.5 1002.734375 Z M 1676.5 844.28125 " fill-opacity="1" fill-rule="nonzero"/></g></g><path fill="#0c2043" d="M 1442.332031 1817.582031 C 1415.222656 1811.359375 1324.125 1787.808594 1223.253906 1772.699219 C 1216.140625 1718.484375 1217.476562 1714.484375 1187.703125 1685.15625 C 1205.476562 1697.597656 1203.257812 1783.808594 1197.035156 1829.582031 C 1196.589844 1790.917969 1184.59375 1772.257812 1177.484375 1764.257812 C 1132.601562 1751.367188 1078.386719 1748.257812 1004.617188 1752.703125 C 1032.171875 1709.152344 1037.5 1672.714844 1020.617188 1643.382812 C 1056.609375 1640.273438 1125.042969 1650.9375 1225.027344 1675.382812 C 1240.582031 1684.714844 1274.355469 1688.710938 1285.464844 1739.816406 C 1285.019531 1718.042969 1281.464844 1702.933594 1270.800781 1686.933594 C 1309.902344 1697.15625 1353.453125 1709.152344 1401 1722.929688 C 1442.332031 1753.148438 1456.105469 1784.699219 1442.332031 1817.582031 Z M 1368.121094 890.605469 C 1383.671875 897.269531 1393.894531 917.714844 1396.113281 943.042969 L 1413.445312 943.042969 C 1417.890625 956.371094 1417.445312 974.148438 1413.445312 995.921875 C 1420.558594 979.035156 1423.667969 960.816406 1421.445312 943.042969 C 1418.335938 914.15625 1404.558594 892.382812 1396.117188 890.605469 Z M 1350.789062 969.707031 C 1355.675781 937.265625 1346.789062 899.492188 1322.347656 890.605469 C 1300.570312 888.828125 1303.238281 892.382812 1296.128906 897.714844 C 1301.90625 906.160156 1306.347656 915.046875 1305.460938 925.710938 C 1302.792969 915.9375 1299.238281 903.9375 1292.570312 898.605469 L 1259.246094 899.492188 C 1265.46875 911.492188 1252.578125 938.15625 1247.691406 948.375 C 1254.355469 956.816406 1254.800781 967.039062 1255.242188 975.484375 C 1254.796875 956.375 1259.242188 948.375 1269.019531 951.042969 C 1273.910156 938.601562 1279.683594 936.824219 1286.792969 946.601562 C 1300.570312 944.824219 1309.457031 947.488281 1313.011719 955.042969 C 1316.125 961.265625 1321.011719 965.265625 1327.679688 966.597656 C 1331.234375 968.820312 1334.34375 975.039062 1337.011719 985.707031 C 1337.011719 979.042969 1336.121094 973.265625 1333.902344 968.375 C 1339.234375 965.257812 1345.011719 965.707031 1350.789062 969.707031 Z M 1510.765625 868.386719 C 1532.09375 872.832031 1552.535156 917.269531 1554.757812 958.597656 C 1560.535156 919.933594 1535.648438 867.054688 1510.765625 868.386719 Z M 1421.441406 877.273438 C 1462.328125 872.832031 1473.4375 975.925781 1438.773438 1015.921875 C 1468.105469 970.148438 1455.660156 886.160156 1421.441406 877.273438 Z M 965.066406 946.597656 C 992.175781 933.265625 1017.949219 914.15625 1043.722656 887.9375 C 1083.71875 852.832031 1124.152344 806.617188 1179.703125 837.277344 C 1164.589844 820.394531 1139.707031 819.058594 1117.488281 825.722656 C 1073.9375 838.613281 1027.722656 879.492188 997.507812 891.492188 C 942.847656 911.9375 885.519531 922.597656 827.308594 923.042969 C 812.644531 934.597656 797.535156 946.597656 782.867188 959.929688 C 853.527344 975.039062 911.738281 972.816406 965.066406 946.597656 Z M 970.398438 963.039062 C 968.621094 964.816406 965.953125 967.039062 962.84375 969.257812 C 959.734375 989.699219 945.070312 998.585938 937.960938 988.8125 C 945.070312 988.8125 952.625 980.371094 958.402344 967.925781 C 936.625 977.703125 915.296875 984.367188 898.410156 987.921875 C 900.183594 997.257812 905.960938 1004.808594 916.628906 1011.03125 C 923.742188 1015.03125 931.738281 1019.472656 940.625 1023.921875 C 953.070312 1034.585938 964.625 1047.917969 974.84375 1064.804688 C 996.621094 1063.027344 994.398438 1029.699219 1021.0625 999.925781 C 1037.5 983.484375 1046.390625 962.15625 1048.613281 935.492188 C 1044.171875 923.492188 1046.390625 912.828125 1055.28125 904.386719 C 1039.277344 924.820312 1005.503906 946.597656 970.398438 963.039062 Z M 1211.699219 913.269531 C 1210.808594 914.15625 1209.921875 915.046875 1209.03125 915.9375 C 1189.476562 931.488281 1168.148438 940.375 1145.039062 943.488281 C 1135.707031 940.824219 1127.265625 928.824219 1119.265625 906.605469 C 1117.492188 889.71875 1093.9375 883.054688 1081.050781 888.386719 C 1086.828125 888.386719 1091.714844 888.386719 1100.605469 892.386719 C 1109.046875 895.496094 1113.933594 902.160156 1114.824219 911.9375 C 1122.820312 933.714844 1131.710938 946.15625 1140.597656 948.378906 C 1163.707031 945.710938 1185.035156 936.382812 1204.585938 921.273438 C 1208.140625 918.15625 1210.363281 915.492188 1211.699219 913.269531 Z M 1245.023438 896.382812 L 1245.023438 895.9375 L 1244.578125 895.9375 L 1244.132812 895.492188 L 1243.6875 895.492188 L 1243.6875 895.050781 C 1237.023438 889.71875 1225.914062 887.050781 1210.359375 886.160156 L 1208.136719 886.160156 L 1207.691406 886.609375 L 1204.125 886.609375 L 1203.679688 887.054688 L 1201.898438 887.054688 L 1201.898438 887.496094 L 1200.117188 887.496094 L 1200.117188 887.941406 L 1199.226562 887.941406 L 1198.78125 888.386719 L 1197.890625 888.386719 L 1197.890625 888.832031 L 1197.445312 888.832031 C 1193.886719 890.609375 1192.554688 893.277344 1192.554688 896.832031 C 1192.554688 897.277344 1192.554688 897.71875 1192.554688 898.164062 L 1166.335938 899.5 C 1161.003906 893.277344 1153.445312 889.722656 1145.003906 889.277344 L 1144.117188 870.617188 C 1161.890625 873.28125 1200.996094 873.28125 1193.886719 844.839844 C 1192.554688 838.617188 1187.667969 832.398438 1180.113281 826.621094 C 1156.558594 810.625 1119.230469 814.179688 1085.457031 833.285156 L 1075.238281 822.625 C 1067.238281 827.511719 1059.238281 831.511719 1051.238281 835.066406 C 1059.238281 831.066406 1065.015625 826.179688 1068.125 820.402344 C 1049.019531 782.628906 1034.800781 754.191406 1026.355469 735.082031 C 1023.246094 719.972656 1017.914062 711.972656 1010.800781 710.195312 C 948.585938 687.085938 887.707031 690.199219 812.164062 727.082031 C 795.722656 740.859375 795.722656 766.1875 853.488281 773.296875 C 798.386719 771.519531 783.277344 750.191406 796.164062 734.636719 C 782.386719 741.746094 776.167969 765.296875 776.167969 773.296875 C 689.515625 797.296875 593.085938 911.5 741.949219 957.273438 L 724.175781 967.046875 C 716.621094 959.9375 706.402344 955.492188 693.511719 952.828125 C 673.515625 954.164062 651.738281 965.71875 628.1875 987.488281 C 642.40625 969.714844 659.292969 956.828125 674.402344 951.941406 C 638.410156 952.828125 610.859375 965.269531 592.195312 989.710938 C 606.859375 991.933594 616.191406 996.824219 621.523438 1004.375 C 596.195312 994.15625 565.53125 991.488281 529.089844 996.375 C 514.871094 889.726562 457.988281 894.613281 421.554688 963.050781 C 441.550781 934.164062 488.652344 900.835938 502.429688 954.609375 C 467.769531 901.726562 425.996094 967.496094 417.109375 990.601562 L 321.566406 998.15625 C 229.582031 999.042969 159.367188 1116.359375 110.929688 1349.660156 C 57.164062 1467.867188 46.496094 1563.851562 78.492188 1638.0625 C 82.492188 1647.398438 86.933594 1656.730469 92.269531 1665.171875 C 173.144531 1750.9375 277.574219 1787.378906 405.113281 1774.042969 C 418 1818.925781 436.664062 1854.476562 461.546875 1880.25 C 464.214844 1871.363281 467.769531 1862.921875 471.769531 1854.921875 C 469.992188 1865.589844 468.660156 1876.253906 467.773438 1886.476562 C 489.101562 1906.472656 513.988281 1919.800781 542.871094 1926.46875 C 542.425781 1922.910156 541.984375 1918.914062 541.539062 1915.359375 C 542.425781 1919.355469 543.757812 1922.910156 545.09375 1926.914062 C 560.203125 1930.46875 576.644531 1932.246094 594.417969 1931.800781 C 595.753906 1913.582031 596.195312 1895.363281 596.195312 1877.144531 C 584.640625 1886.921875 575.308594 1898.921875 567.3125 1913.140625 C 539.757812 1905.140625 495.320312 1895.363281 482.878906 1872.703125 C 515.316406 1869.144531 561.980469 1865.589844 591.75 1842.929688 C 541.089844 1851.371094 489.097656 1838.929688 447.773438 1808.269531 C 491.765625 1814.933594 536.648438 1804.714844 573.089844 1779.382812 C 523.316406 1798.046875 467.773438 1797.605469 418 1777.164062 L 475.769531 1773.164062 C 537.539062 1766.5 565.535156 1741.167969 559.316406 1697.175781 C 571.3125 1662.957031 599.753906 1622.964844 644.636719 1577.191406 L 793.503906 1454.542969 C 783.726562 1492.761719 772.171875 1561.640625 759.285156 1660.738281 L 795.277344 1630.519531 C 797.5 1543.421875 809.054688 1476.320312 829.050781 1429.214844 C 847.71875 1427.882812 863.714844 1414.550781 877.488281 1389.222656 C 888.15625 1390.113281 905.929688 1390.558594 930.371094 1391.445312 L 972.144531 1395.441406 C 982.808594 1412.773438 999.695312 1426.996094 1022.800781 1438.550781 C 1017.023438 1451.878906 1000.136719 1461.65625 973.03125 1467.433594 C 957.921875 1486.988281 949.035156 1511.425781 947.257812 1541.203125 C 943.703125 1578.085938 877.488281 1643.40625 748.175781 1737.617188 C 831.71875 1713.175781 902.820312 1664.292969 973.476562 1602.078125 C 979.695312 1636.296875 957.035156 1675.402344 905.929688 1720.285156 C 862.382812 1765.609375 787.726562 1803.828125 681.964844 1834.933594 C 646.855469 1846.042969 620.195312 1857.597656 599.753906 1874.039062 C 611.308594 1922.03125 618.414062 1971.359375 620.195312 2020.238281 C 623.75 2024.238281 627.75 2027.792969 631.75 2031.347656 C 634.417969 2032.679688 637.082031 2034.015625 639.304688 2035.34375 C 651.300781 1996.683594 654.855469 1959.355469 649.964844 1923.359375 C 670.851562 1970.023438 678.40625 2019.347656 673.074219 2071.78125 C 673.519531 2072.671875 673.960938 2074.003906 674.40625 2074.894531 C 705.957031 1998.015625 726.398438 1941.578125 735.734375 1904.695312 C 728.621094 1963.800781 738.398438 2019.34375 753.507812 2073.113281 C 774.394531 2043.339844 782.390625 2000.679688 783.28125 1943.800781 C 769.0625 1944.246094 755.285156 1943.800781 741.066406 1943.800781 L 783.28125 1936.6875 C 783.726562 1910.46875 782.394531 1881.140625 780.613281 1848.699219 C 794.390625 1874.472656 802.832031 1902.46875 805.941406 1933.132812 L 831.714844 1929.132812 C 833.9375 1916.691406 835.714844 1903.804688 836.605469 1890.472656 C 837.492188 1903.804688 838.828125 1916.246094 841.050781 1927.800781 L 869.042969 1923.355469 C 869.042969 1910.027344 868.597656 1898.917969 867.710938 1889.140625 C 868.597656 1900.695312 869.933594 1911.804688 871.265625 1922.910156 L 887.707031 1920.246094 C 891.707031 1898.46875 898.375 1876.695312 907.703125 1856.253906 C 907.703125 1877.140625 909.039062 1897.136719 910.8125 1916.6875 C 951.253906 1910.023438 991.691406 1903.359375 1032.128906 1896.691406 C 1032.574219 1884.25 1032.574219 1871.808594 1032.128906 1859.363281 C 1035.238281 1871.363281 1037.90625 1883.363281 1040.570312 1895.359375 L 1094.785156 1886.472656 C 1077.453125 1893.136719 1060.125 1898.914062 1042.351562 1904.691406 C 1052.125 1953.574219 1057.015625 2003.34375 1057.457031 2053.558594 C 1062.347656 2052.226562 1066.789062 2050.449219 1071.675781 2048.671875 C 1086.785156 2006.011719 1091.671875 1964.683594 1086.339844 1924.6875 C 1101.894531 1959.792969 1109.894531 1996.234375 1110.78125 2034.453125 C 1117.445312 2031.785156 1124.113281 2029.121094 1130.777344 2026.453125 C 1151.21875 1974.460938 1164.550781 1934.464844 1171.660156 1906.027344 C 1168.105469 1938.910156 1176.105469 1971.347656 1182.324219 2004.234375 C 1196.988281 1997.570312 1211.652344 1990.457031 1227.207031 1982.902344 C 1232.09375 1944.6875 1228.984375 1899.804688 1216.984375 1850.035156 C 1236.09375 1886.917969 1244.980469 1928.6875 1243.203125 1975.351562 C 1248.09375 1972.683594 1253.425781 1970.019531 1258.757812 1967.351562 C 1266.3125 1944.6875 1271.199219 1919.359375 1272.535156 1892.253906 C 1274.753906 1916.25 1277.867188 1937.132812 1282.753906 1954.910156 C 1289.867188 1950.90625 1297.417969 1946.910156 1304.972656 1942.910156 C 1305.417969 1922.027344 1304.972656 1904.695312 1303.640625 1890.476562 C 1304.972656 1908.25 1306.75 1925.136719 1308.527344 1941.136719 C 1328.96875 1930.027344 1350.300781 1918.027344 1371.628906 1906.027344 C 1442.285156 1866.925781 1471.617188 1825.152344 1460.507812 1780.710938 C 1450.730469 1741.164062 1424.066406 1712.722656 1386.296875 1700.722656 C 1343.191406 1687.394531 1257.871094 1666.503906 1131.222656 1639.398438 C 1137 1603.402344 1140.554688 1561.632812 1140.996094 1514.082031 C 1139.664062 1519.859375 1130.777344 1507.863281 1114.335938 1478.085938 C 1144.109375 1494.972656 1168.550781 1490.976562 1188.546875 1465.199219 C 1211.210938 1411.429688 1220.097656 1331.441406 1214.765625 1225.234375 C 1207.210938 1179.019531 1206.765625 1135.023438 1213.433594 1091.917969 L 1214.765625 1146.574219 C 1226.320312 1091.917969 1322.304688 1086.582031 1315.640625 1056.367188 C 1322.75 1053.699219 1328.527344 1047.03125 1332.082031 1035.925781 C 1344.523438 1037.257812 1353.855469 1030.148438 1360.964844 1015.035156 L 1404.957031 1013.261719 C 1413.398438 1020.8125 1423.179688 1026.148438 1435.175781 1025.257812 L 1530.273438 1021.703125 C 1575.15625 994.152344 1581.820312 904.386719 1530.273438 868.390625 C 1525.832031 865.28125 1519.164062 864.835938 1514.277344 865.28125 L 1427.621094 870.167969 C 1413.84375 871.503906 1402.734375 876.390625 1395.625 884.835938 L 1312.527344 886.167969 C 1302.75 885.28125 1298.308594 888.835938 1292.53125 895.054688 L 1253.425781 895.945312 C 1261.867188 911.054688 1248.980469 938.15625 1244.09375 947.9375 C 1257.871094 970.601562 1249.871094 987.042969 1232.09375 1006.148438 C 1248.535156 985.261719 1252.539062 971.042969 1238.761719 947.9375 C 1242.316406 940.382812 1244.984375 933.273438 1247.648438 926.160156 C 1253.023438 912.824219 1252.136719 903.046875 1245.023438 896.382812 Z M 1065.050781 2066.878906 C 1062.382812 2066.433594 1060.164062 2065.992188 1057.5 2065.546875 C 1057.5 2071.769531 1057.050781 2078.433594 1057.050781 2084.652344 C 1059.71875 2078.875 1062.382812 2072.65625 1065.050781 2066.878906 Z M 1003.285156 2076.210938 C 1001.949219 2076.210938 1000.171875 2076.210938 998.839844 2076.210938 C 998.394531 2081.542969 998.394531 2086.875 997.953125 2092.652344 C 999.726562 2086.875 1001.507812 2081.542969 1003.285156 2076.210938 Z M 998.839844 2069.988281 C 1001.0625 2069.542969 1003.285156 2069.101562 1005.503906 2068.210938 C 1021.058594 2016.21875 1029.945312 1962.003906 1032.167969 1907.789062 C 1014.390625 1912.679688 997.058594 1917.566406 979.285156 1921.566406 C 993.507812 1969.558594 1000.171875 2019.773438 998.839844 2069.988281 Z M 979.730469 1385.199219 L 905.964844 1367.425781 C 896.632812 1326.984375 861.082031 1297.210938 819.3125 1295.878906 C 845.972656 1303.433594 867.75 1322.542969 878.859375 1347.875 C 858.863281 1336.320312 834.417969 1334.097656 812.644531 1341.652344 C 806.867188 1341.207031 819.757812 1342.988281 850.417969 1346.984375 L 801.980469 1394.535156 L 798.425781 1408.753906 L 605.121094 1566.953125 C 590.457031 1557.179688 582.457031 1542.070312 580.679688 1522.074219 C 580.234375 1521.625 584.679688 1470.523438 593.566406 1368.761719 C 595.34375 1358.097656 607.34375 1337.65625 630.449219 1307.433594 C 631.339844 1303.878906 621.5625 1312.765625 599.789062 1334.542969 L 601.121094 1303.4375 C 631.339844 1271.441406 668.222656 1246.558594 709.105469 1230.113281 C 671.777344 1239.890625 637.117188 1256.777344 606.453125 1279.886719 C 603.34375 1233.667969 610.453125 1187.007812 627.785156 1143.90625 C 692.664062 1031.03125 766.875 982.152344 850.417969 997.257812 C 875.746094 1003.035156 904.1875 1014.589844 936.183594 1031.921875 C 958.847656 1057.695312 973.953125 1076.359375 981.953125 1087.910156 C 969.066406 1083.023438 955.292969 1081.691406 939.292969 1083.914062 C 968.175781 1087.46875 988.617188 1094.578125 1000.617188 1104.355469 C 1013.507812 1137.238281 1034.835938 1168.789062 1065.941406 1199.894531 C 1089.496094 1215.007812 1103.269531 1228.78125 1106.382812 1241.222656 C 1105.046875 1257.664062 1108.15625 1274.109375 1115.714844 1288.773438 C 1113.046875 1278.550781 1112.160156 1267.441406 1113.046875 1255.886719 C 1121.933594 1258.109375 1129.933594 1263 1136.152344 1269.21875 C 1153.484375 1294.550781 1149.042969 1324.320312 1123.265625 1358.09375 C 1117.933594 1342.542969 1108.601562 1328.765625 1095.714844 1318.542969 C 1106.378906 1333.652344 1113.046875 1351.429688 1114.824219 1370.089844 C 1101.492188 1391.421875 1077.050781 1413.640625 1042.832031 1437.191406 C 1021.503906 1433.195312 1004.617188 1417.195312 992.175781 1388.308594 C 1003.285156 1368.753906 1049.054688 1342.539062 1077.496094 1313.652344 C 1076.160156 1310.984375 1074.386719 1308.320312 1073.050781 1305.652344 C 1042.386719 1332.761719 998.394531 1359.871094 979.730469 1385.199219 Z M 1084.160156 1306.101562 C 1093.046875 1295.878906 1098.824219 1285.214844 1100.160156 1274.550781 C 1095.714844 1282.550781 1088.160156 1290.992188 1079.714844 1299.4375 C 1081.050781 1301.65625 1082.828125 1303.878906 1084.160156 1306.101562 Z M 732.65625 891.9375 C 740.652344 879.496094 755.320312 853.277344 764.652344 842.167969 C 766.875 843.5 762.429688 859.5 764.652344 861.277344 C 751.320312 886.605469 757.984375 903.046875 784.207031 909.714844 C 772.207031 917.714844 759.765625 928.820312 746.875 943.042969 C 633.5625 915.492188 681.554688 825.28125 749.097656 795.953125 C 727.324219 807.507812 692.214844 853.277344 689.996094 875.496094 C 700.214844 859.941406 723.320312 823.503906 759.761719 805.28125 C 742.429688 827.058594 718.878906 846.609375 707.769531 892.382812 C 717.542969 877.273438 748.207031 837.277344 760.203125 823.949219 C 756.652344 827.058594 729.542969 885.273438 732.65625 891.9375 Z M 897.964844 794.617188 C 873.96875 799.507812 848.640625 801.730469 823.308594 801.285156 C 847.308594 804.394531 902.851562 808.839844 927.296875 808.839844 C 897.523438 815.058594 855.75 816.835938 826.421875 818.613281 C 845.085938 822.167969 908.1875 824.390625 939.296875 819.945312 C 902.855469 827.945312 859.308594 835.945312 821.980469 835.054688 C 843.753906 840.386719 923.296875 849.273438 946.402344 846.164062 C 900.632812 857.273438 860.636719 855.496094 810.867188 858.160156 C 867.304688 871.9375 904.632812 876.378906 985.953125 857.714844 C 933.515625 886.597656 860.191406 898.152344 785.089844 871.046875 C 784.644531 846.605469 786.425781 812.832031 789.535156 768.839844 C 813.085938 790.167969 853.96875 796.835938 898.851562 788.835938 Z M 78.527344 1638.050781 C 207.839844 1664.714844 209.617188 1511.847656 190.957031 1424.304688 C 168.292969 1318.542969 198.507812 1220.78125 274.054688 1139.902344 C 286.941406 1126.128906 403.8125 1001.703125 321.601562 998.148438 C 403.367188 999.035156 326.046875 1093.6875 302.050781 1121.683594 C 226.0625 1211.003906 188.289062 1293.660156 204.289062 1409.195312 C 207.84375 1437.191406 214.066406 1461.1875 217.621094 1485.1875 C 225.171875 1537.179688 206.066406 1630.054688 154.519531 1653.605469 C 154.074219 1665.601562 159.851562 1676.269531 169.628906 1682.933594 C 155.851562 1680.265625 144.742188 1669.605469 141.1875 1655.828125 C 134.523438 1658.050781 127.410156 1659.382812 120.300781 1659.824219 C 123.414062 1670.046875 130.523438 1678.488281 139.410156 1683.824219 C 126.078125 1680.710938 115.414062 1670.933594 110.96875 1658.492188 C 96.304688 1659.828125 85.636719 1653.160156 78.527344 1638.050781 Z M 977.0625 1922.011719 C 956.179688 1926.457031 934.402344 1930.453125 912.628906 1934.007812 C 918.851562 1982.890625 930.402344 2026.886719 945.957031 2066.433594 C 954.847656 2020.664062 971.285156 1975.335938 977.0625 1922.011719 Z M 885.523438 1937.566406 C 881.527344 1938.011719 877.96875 1938.453125 874.414062 1938.898438 C 877.082031 1954.003906 880.632812 1968.671875 885.082031 1982.445312 C 883.746094 1967.335938 883.746094 1952.230469 885.523438 1937.566406 Z M 869.078125 1939.339844 C 860.636719 1940.230469 852.195312 1940.675781 843.75 1941.5625 C 848.640625 1965.558594 856.195312 1984.667969 865.96875 1999.332031 C 867.746094 1976.667969 868.636719 1956.671875 869.078125 1939.339844 Z M 829.085938 1942.449219 C 821.535156 1942.898438 813.976562 1943.339844 806.867188 1943.339844 C 807.757812 1963.78125 806.867188 1984.664062 803.757812 2006.886719 C 815.3125 1987.777344 823.753906 1966.007812 829.085938 1942.449219 Z M 781.539062 973.257812 C 744.65625 984.367188 706.882812 1006.585938 669.109375 1040.804688 C 696.660156 1004.808594 737.097656 980.816406 781.539062 973.257812 Z M 717.101562 974.148438 C 692.660156 982.589844 665.996094 1001.699219 637.113281 1030.585938 C 637.113281 1023.03125 637.113281 1019.921875 636.226562 1012.367188 C 659.332031 983.480469 690.441406 962.59375 717.101562 974.148438 Z M 1315.679688 1056.359375 C 1316.570312 1046.585938 1317.015625 1036.363281 1317.015625 1027.03125 C 1318.789062 1035.917969 1319.238281 1045.25 1317.902344 1055.027344 C 1317.015625 1055.914062 1316.125 1055.914062 1315.679688 1056.359375 Z M 1117.042969 1094.578125 C 1114.378906 1099.019531 1118.378906 1165.679688 1103.269531 1215.003906 C 1100.160156 1201.226562 1106.378906 1176.339844 1105.9375 1149.234375 C 1096.601562 1163.011719 1085.492188 1178.117188 1072.609375 1193.671875 C 1050.390625 1171.457031 1031.722656 1146.125 1016.617188 1119.015625 C 1007.285156 1098.574219 994.839844 1082.578125 979.734375 1071.023438 C 992.175781 1063.027344 999.289062 1054.582031 1001.066406 1045.695312 C 1006.394531 1031.472656 1012.621094 1021.253906 1020.171875 1015.03125 C 1017.949219 1019.472656 1004.621094 1035.917969 1004.621094 1062.132812 L 1004.621094 1080.355469 C 1005.507812 1084.796875 1009.0625 1086.574219 1015.730469 1086.132812 Z M 1333.457031 1028.363281 C 1341.011719 1016.363281 1341.898438 1004.808594 1335.679688 993.253906 C 1340.125 997.699219 1342.347656 1004.363281 1341.898438 1011.476562 C 1341.457031 1018.144531 1338.34375 1024.363281 1333.457031 1028.363281 Z M 494.023438 989.703125 L 453.140625 990.144531 C 463.359375 955.042969 498.023438 918.601562 494.023438 989.703125 Z M 1262.800781 1055.914062 C 1253.46875 1055.027344 1244.136719 1059.46875 1239.246094 1062.132812 C 1242.804688 1057.691406 1251.246094 1055.023438 1259.246094 1053.691406 C 1257.46875 1039.917969 1257.46875 1034.585938 1259.691406 1015.921875 C 1261.023438 1037.25 1257.914062 1035.917969 1262.800781 1055.914062 Z M 1290.351562 1041.695312 C 1292.574219 1007.476562 1270.800781 990.148438 1268.578125 961.707031 C 1277.464844 991.925781 1296.574219 997.703125 1290.351562 1041.695312 Z M 1314.351562 1008.367188 C 1305.015625 974.59375 1289.464844 974.59375 1281.464844 954.152344 C 1296.128906 977.257812 1310.792969 969.707031 1314.351562 1008.367188 Z M 1314.351562 1008.367188 " fill-opacity="1" fill-rule="evenodd"/><path fill="#0c2043" d="M 1.207031 2043.769531 C 1.652344 2037.550781 294.5 2030.882812 295.386719 2023.773438 C 298.496094 1989.554688 305.609375 1946.007812 312.71875 1917.566406 C 314.941406 1974.003906 318.496094 2011.332031 323.828125 2029.992188 C 336.269531 2004.664062 344.269531 1976.667969 346.933594 1948.226562 C 347.824219 1982.890625 354.488281 2009.109375 366.929688 2027.769531 L 370.929688 2011.332031 C 373.152344 1998.886719 376.261719 1986.890625 379.371094 1972.667969 L 379.816406 1974.890625 C 382.925781 1962 386.035156 1948.671875 389.148438 1934.898438 C 393.59375 1978.003906 397.59375 2009.554688 402.039062 2029.996094 C 406.480469 2009.554688 410.480469 1977.558594 414.925781 1933.121094 C 422.925781 1967.339844 430.476562 1998 437.144531 2026.441406 C 449.585938 2007.777344 456.253906 1981.558594 457.140625 1946.898438 C 459.808594 1973.558594 466.914062 1999.777344 478.027344 2024.21875 C 479.359375 2013.109375 480.695312 2001.554688 482.027344 1988.667969 L 485.136719 2002.886719 C 487.804688 1982.003906 490.023438 1953.117188 491.355469 1916.234375 C 496.246094 1934.453125 501.578125 1956.230469 505.574219 1977.558594 C 507.351562 1962.894531 509.574219 1946.007812 511.351562 1926.902344 C 519.351562 1960.675781 526.460938 1991.78125 533.570312 2020.21875 C 545.566406 2001.558594 552.234375 1974.894531 553.566406 1940.675781 C 556.234375 1967.339844 563.34375 1993.558594 574.449219 2017.554688 C 575.785156 2006.890625 577.117188 1994.890625 578.007812 1982.449219 L 581.5625 1996.226562 C 584.230469 1975.339844 586.453125 1946.453125 587.78125 1909.570312 C 596.222656 1944.234375 598.003906 2004.226562 613.554688 2029.109375 C 609.113281 2033.109375 601.558594 2036.222656 591.78125 2038.886719 C 594.449219 2051.773438 597.558594 2063.773438 600.222656 2075.328125 C 612.664062 2056.664062 619.332031 2030.445312 620.21875 1996.226562 C 622.441406 2015.335938 626.4375 2034.441406 633.105469 2053.105469 C 640.65625 2023.777344 643.324219 1983.335938 649.542969 1957.5625 C 650.433594 1976.671875 651.320312 1993.558594 652.65625 2008.667969 C 653.542969 1995.78125 653.988281 1981.117188 654.875 1965.121094 C 660.652344 1988.230469 663.316406 2023.332031 669.09375 2051.328125 C 676.648438 2031.332031 681.984375 2010.003906 684.207031 1988.671875 C 685.09375 2022.890625 691.757812 2049.105469 703.757812 2067.773438 C 710.871094 2039.777344 718.425781 2008.667969 726.421875 1974.894531 C 728.199219 1994.003906 729.980469 2010.890625 731.753906 2025.554688 C 736.199219 2003.78125 741.53125 1982.449219 745.972656 1963.785156 C 748.195312 2020.222656 751.75 2057.996094 757.082031 2076.660156 C 769.527344 2050.886719 777.523438 2023.332031 780.1875 1994.894531 C 781.523438 2029.113281 788.1875 2055.777344 800.1875 2074.4375 C 807.296875 2045.996094 814.40625 2014.890625 822.402344 1981.117188 C 824.183594 1999.339844 825.960938 2015.335938 827.734375 2029.109375 C 830.847656 2010.445312 834.402344 1992.226562 837.957031 1978.003906 C 838.84375 2002.445312 840.179688 2023.332031 841.511719 2040.664062 C 843.734375 2024.222656 845.957031 2005.113281 848.179688 1982.449219 C 853.957031 2006.445312 859.285156 2029.109375 864.617188 2050.441406 C 868.175781 2037.109375 870.839844 2022.886719 872.171875 2009.113281 C 873.058594 2028.222656 875.28125 2044.664062 879.285156 2058.886719 C 885.949219 2042.445312 889.503906 2021.558594 890.390625 1996.230469 C 892.167969 2014.449219 896.167969 2031.777344 901.945312 2049.109375 C 905.945312 2031.777344 909.945312 2014.003906 914.390625 1995.339844 C 916.167969 2012.671875 917.945312 2028.667969 919.722656 2042.445312 C 921.945312 2022.449219 923.71875 1997.117188 924.609375 1965.125 C 929.054688 1982.457031 933.050781 2004.671875 936.609375 2027.335938 C 937.941406 2017.117188 939.277344 2006.007812 940.164062 1994.011719 C 947.273438 2022.894531 953.496094 2050 959.273438 2074.445312 C 962.382812 2074.890625 965.492188 2075.332031 969.046875 2075.332031 C 977.046875 2058 981.488281 2035.335938 982.378906 2007.785156 C 985.046875 2031.785156 990.820312 2055.335938 1000.152344 2077.554688 L 1008.152344 2078 C 1012.148438 2057.117188 1014.816406 2023.34375 1016.59375 1976.679688 C 1021.484375 1995.34375 1026.816406 2016.675781 1030.8125 2038.003906 C 1032.589844 2023.339844 1034.8125 2006.453125 1036.589844 1987.34375 C 1044.589844 2021.117188 1052.144531 2052.222656 1058.808594 2080.664062 C 1065.472656 2070.890625 1070.363281 2058.890625 1073.472656 2044.667969 C 1069.03125 2042.449219 1065.472656 2040.671875 1062.808594 2038.449219 C 1078.363281 2013.5625 1080.140625 1953.128906 1088.582031 1918.910156 C 1090.804688 1975.347656 1094.359375 2012.675781 1099.691406 2031.785156 C 1104.136719 2022.007812 1108.132812 2012.230469 1111.691406 2002.457031 C 1112.136719 1992.679688 1112.578125 1981.570312 1113.023438 1970.457031 C 1114.355469 1975.347656 1115.246094 1980.679688 1116.132812 1986.011719 C 1119.242188 1974.457031 1121.464844 1962.015625 1122.796875 1950.015625 C 1123.6875 1984.234375 1130.351562 2010.453125 1142.796875 2029.117188 C 1149.460938 2001.121094 1157.015625 1970.011719 1165.011719 1936.238281 C 1166.789062 1955.347656 1168.570312 1972.234375 1170.789062 1986.898438 C 1174.789062 1965.125 1180.125 1943.792969 1184.566406 1925.128906 C 1186.789062 1981.566406 1190.785156 2019.339844 1196.121094 2038.003906 C 1199.230469 2030.894531 1202.339844 2023.785156 1205.007812 2016.226562 C 1208.117188 1999.789062 1211.230469 1984.230469 1214.34375 1971.792969 C 1214.34375 1975.789062 1214.34375 1979.792969 1214.789062 1983.789062 C 1216.5625 1974.902344 1218.34375 1965.570312 1219.230469 1956.238281 C 1220.121094 1990.457031 1226.785156 2017.121094 1239.226562 2035.78125 C 1245.894531 2007.339844 1253.445312 1976.234375 1261.445312 1942.460938 C 1265.445312 1986.457031 1269.886719 2018.894531 1274.332031 2039.339844 C 1278.777344 2018.894531 1282.777344 1986.898438 1287.222656 1943.796875 C 1295.222656 1977.570312 1302.332031 2008.675781 1309.441406 2037.117188 C 1309.886719 2035.78125 1310.773438 2034.894531 1311.664062 2033.5625 C 1312.996094 2019.785156 1314.773438 2004.675781 1316.550781 1987.789062 L 1321.882812 2009.566406 C 1326.328125 1994.902344 1328.546875 1977.570312 1329.4375 1957.574219 C 1332.105469 1986.015625 1340.101562 2013.5625 1352.542969 2039.339844 C 1354.765625 2030.894531 1356.988281 2018.453125 1358.765625 2002.007812 L 1358.765625 2001.5625 C 1360.988281 1982.011719 1362.320312 1957.125 1363.65625 1926.464844 C 1370.765625 1954.90625 1377.875 1998.453125 1380.988281 2032.671875 C 1380.988281 2033.5625 1384.097656 2034.449219 1388.988281 2034.894531 C 1390.761719 2017.121094 1392.097656 1995.789062 1392.984375 1970.457031 C 1397.429688 1988.679688 1402.761719 2010.453125 1407.203125 2031.785156 C 1408.980469 2017.121094 1410.757812 2000.234375 1412.980469 1981.125 C 1417.425781 2001.121094 1421.867188 2020.230469 1426.3125 2038.003906 C 1433.421875 2038.449219 1441.421875 2038.890625 1449.421875 2039.339844 C 1452.53125 2026.449219 1454.308594 2011.785156 1455.199219 1994.898438 C 1456.53125 2010.453125 1459.640625 2025.5625 1464.085938 2040.226562 L 1484.082031 2041.113281 C 1486.304688 2021.558594 1488.082031 1995.785156 1489.414062 1963.792969 C 1495.632812 1988.679688 1495.191406 2016.230469 1501.410156 2042.003906 C 1582.289062 2046.003906 1674.71875 2049.558594 1675.164062 2053.113281 C 1639.171875 2083.332031 1336.101562 2095.328125 1119.246094 2098.882812 C 1012.59375 2130.882812 587.324219 2109.550781 526.445312 2104.660156 C 526.445312 2103.773438 530.886719 2102.886719 538 2102.441406 C 369.582031 2101.550781 110.949219 2073.554688 64.734375 2070 C 65.179688 2063.78125 364.246094 2062.890625 364.6875 2055.78125 C 211.398438 2056.210938 38.535156 2046.882812 1.207031 2043.769531 Z M 1481.433594 2061.988281 L 1471.660156 2062.433594 C 1473.882812 2067.324219 1476.105469 2072.210938 1478.324219 2076.652344 C 1479.214844 2072.65625 1480.546875 2067.765625 1481.433594 2061.988281 Z M 1441.441406 2063.324219 L 1432.554688 2063.324219 L 1435.222656 2074.433594 C 1437.441406 2070.878906 1439.222656 2067.324219 1441.441406 2063.324219 Z M 1385.894531 2064.210938 L 1373.898438 2064.65625 C 1376.117188 2070.878906 1378.785156 2077.101562 1381.894531 2083.320312 C 1383.226562 2077.988281 1384.558594 2071.769531 1385.894531 2064.210938 Z M 1347.230469 2064.65625 L 1334.789062 2064.65625 L 1338.789062 2080.65625 C 1341.898438 2075.765625 1344.566406 2070.433594 1347.230469 2064.65625 Z M 1307.238281 2064.65625 L 1300.128906 2064.65625 C 1301.015625 2072.210938 1302.351562 2078.875 1303.683594 2084.210938 C 1304.570312 2078.875 1305.90625 2072.210938 1307.238281 2064.65625 Z M 1273.019531 2064.210938 C 1268.132812 2064.210938 1263.6875 2064.210938 1259.246094 2064.210938 C 1261.910156 2070.878906 1265.023438 2076.65625 1268.578125 2081.984375 Z M 1234.363281 2063.324219 C 1229.917969 2063.324219 1225.472656 2063.324219 1221.03125 2062.878906 C 1222.363281 2071.765625 1223.699219 2078.875 1225.472656 2084.652344 C 1228.585938 2077.542969 1231.695312 2070.433594 1234.363281 2063.324219 Z M 1198.367188 2061.988281 C 1172.148438 2060.65625 1147.707031 2058.878906 1127.265625 2056.210938 C 1129.488281 2066.878906 1132.15625 2076.652344 1135.707031 2084.207031 C 1171.257812 2081.984375 1196.585938 2080.210938 1197.035156 2077.984375 C 1197.476562 2072.65625 1197.921875 2067.324219 1198.367188 2061.988281 Z M 1101.933594 2082.433594 C 1104.15625 2075.320312 1105.933594 2065.546875 1107.265625 2053.101562 C 1100.601562 2052.214844 1093.933594 2050.878906 1088.605469 2049.105469 C 1092.160156 2060.65625 1096.601562 2071.769531 1101.933594 2082.433594 Z M 684.21875 2094.429688 C 677.996094 2093.539062 672.21875 2092.652344 666.441406 2091.320312 C 661.554688 2093.09375 655.332031 2094.875 648.667969 2095.761719 Z M 553.570312 2046.4375 C 547.351562 2047.324219 540.238281 2048.214844 533.128906 2048.660156 C 537.125 2061.101562 541.570312 2072.65625 547.347656 2084.207031 C 549.570312 2075.765625 551.792969 2062.878906 553.570312 2046.4375 Z M 517.574219 2050.4375 C 510.910156 2050.882812 504.242188 2051.328125 496.691406 2051.773438 C 499.359375 2061.992188 501.578125 2072.214844 504.242188 2081.988281 C 510.019531 2073.097656 514.464844 2062.433594 517.574219 2050.4375 Z M 474.472656 2053.101562 C 470.917969 2053.101562 467.359375 2053.546875 463.363281 2053.546875 C 465.140625 2065.992188 466.917969 2076.65625 468.695312 2085.542969 C 470.472656 2076.65625 472.691406 2065.992188 474.472656 2053.101562 Z M 440.699219 2054.4375 C 434.480469 2054.4375 427.8125 2054.878906 421.144531 2054.878906 C 424.253906 2065.546875 428.699219 2075.320312 434.035156 2083.320312 C 436.253906 2073.988281 438.476562 2064.210938 440.699219 2054.4375 Z M 402.925781 2055.324219 C 397.148438 2055.324219 391.371094 2055.324219 385.152344 2055.324219 C 386.925781 2068.210938 388.707031 2078.429688 390.929688 2085.542969 C 395.371094 2075.765625 399.816406 2065.546875 402.925781 2055.324219 Z M 402.925781 2055.324219 " fill-opacity="1" fill-rule="evenodd"/><g clip-path="url(#37bad0b15f)"><path fill="#0c2043" d="M 1156.777344 1132.992188 L 2545.613281 1132.992188 L 2545.613281 1481.222656 L 1156.777344 1481.222656 Z M 1156.777344 1132.992188 " fill-opacity="1" fill-rule="nonzero"/></g><g fill="#0c2043" fill-opacity="1"><g transform="translate(1512.162833, 1704.308932)"><g/></g></g><g fill="#0c2043" fill-opacity="1"><g transform="translate(1570.425606, 1704.308932)"><g/></g></g><g fill="#0c2043" fill-opacity="1"><g transform="translate(1628.688379, 1704.308932)"><g/></g></g><g fill="#0c2043" fill-opacity="1"><g transform="translate(1686.951144, 1704.308932)"><g/></g></g><g fill="#0c2043" fill-opacity="1"><g transform="translate(1745.213925, 1704.308932)"><g/></g></g><g fill="#0c2043" fill-opacity="1"><g transform="translate(1803.476706, 1704.308932)"><g/></g></g><g fill="#0c2043" fill-opacity="1"><g transform="translate(1861.739488, 1704.308932)"><g/></g></g><g fill="#0c2043" fill-opacity="1"><g transform="translate(1920.002269, 1704.308932)"><g/></g></g><g fill="#0c2043" fill-opacity="1"><g transform="translate(1978.26505, 1704.308932)"><g/></g></g><g fill="#0c2043" fill-opacity="1"><g transform="translate(2036.593445, 1704.308932)"><g><path d="M 20.40625 -172.109375 L 60.234375 -172.109375 L 60.234375 -32.453125 L 146.53125 -32.453125 L 146.53125 0 L 20.40625 0 Z M 20.40625 -172.109375 "/></g></g></g><g fill="#0c2043" fill-opacity="1"><g transform="translate(2173.771849, 1704.308932)"><g><path d="M 71.046875 -134.234375 C 91.535156 -134.234375 107.269531 -129.359375 118.25 -119.609375 C 129.238281 -109.859375 134.734375 -95.148438 134.734375 -75.484375 L 134.734375 0 L 98.828125 0 L 98.828125 -16.46875 C 91.617188 -4.175781 78.179688 1.96875 58.515625 1.96875 C 48.347656 1.96875 39.535156 0.25 32.078125 -3.1875 C 24.617188 -6.632812 18.921875 -11.390625 14.984375 -17.453125 C 11.054688 -23.515625 9.09375 -30.398438 9.09375 -38.109375 C 9.09375 -50.398438 13.722656 -60.066406 22.984375 -67.109375 C 32.242188 -74.160156 46.546875 -77.6875 65.890625 -77.6875 L 96.375 -77.6875 C 96.375 -86.050781 93.832031 -92.484375 88.75 -96.984375 C 83.675781 -101.492188 76.054688 -103.75 65.890625 -103.75 C 58.835938 -103.75 51.910156 -102.640625 45.109375 -100.421875 C 38.304688 -98.210938 32.53125 -95.222656 27.78125 -91.453125 L 14.015625 -118.265625 C 21.222656 -123.335938 29.867188 -127.265625 39.953125 -130.046875 C 50.035156 -132.835938 60.398438 -134.234375 71.046875 -134.234375 Z M 68.109375 -23.84375 C 74.660156 -23.84375 80.476562 -25.359375 85.5625 -28.390625 C 90.644531 -31.421875 94.25 -35.890625 96.375 -41.796875 L 96.375 -55.3125 L 70.0625 -55.3125 C 54.332031 -55.3125 46.46875 -50.148438 46.46875 -39.828125 C 46.46875 -34.910156 48.390625 -31.015625 52.234375 -28.140625 C 56.085938 -25.273438 61.378906 -23.84375 68.109375 -23.84375 Z M 68.109375 -23.84375 "/></g></g></g><g fill="#0c2043" fill-opacity="1"><g transform="translate(2314.146261, 1704.308932)"><g><path d="M 95.890625 -134.234375 C 108.179688 -134.234375 119.363281 -131.40625 129.4375 -125.75 C 139.519531 -120.101562 147.429688 -112.15625 153.171875 -101.90625 C 158.910156 -91.664062 161.78125 -79.742188 161.78125 -66.140625 C 161.78125 -52.535156 158.910156 -40.609375 153.171875 -30.359375 C 147.429688 -20.117188 139.519531 -12.171875 129.4375 -6.515625 C 119.363281 -0.859375 108.179688 1.96875 95.890625 1.96875 C 77.691406 1.96875 63.835938 -3.769531 54.328125 -15.25 L 54.328125 0 L 17.703125 0 L 17.703125 -182.421875 L 56.0625 -182.421875 L 56.0625 -118.265625 C 65.726562 -128.910156 79.003906 -134.234375 95.890625 -134.234375 Z M 89.25 -29.5 C 99.082031 -29.5 107.15625 -32.816406 113.46875 -39.453125 C 119.78125 -46.097656 122.9375 -54.992188 122.9375 -66.140625 C 122.9375 -77.285156 119.78125 -86.175781 113.46875 -92.8125 C 107.15625 -99.445312 99.082031 -102.765625 89.25 -102.765625 C 79.414062 -102.765625 71.34375 -99.445312 65.03125 -92.8125 C 58.71875 -86.175781 55.5625 -77.285156 55.5625 -66.140625 C 55.5625 -54.992188 58.71875 -46.097656 65.03125 -39.453125 C 71.34375 -32.816406 79.414062 -29.5 89.25 -29.5 Z M 89.25 -29.5 "/></g></g></g><g fill="#ffffff" fill-opacity="1"><g transform="translate(1512.162833, 1386.807312)"><g><path d="M 103.015625 -60.96875 L 103.015625 0 L 63.1875 0 L 63.1875 -61.46875 L -3.4375 -172.109375 L 38.84375 -172.109375 L 84.828125 -95.640625 L 130.796875 -172.109375 L 169.890625 -172.109375 Z M 103.015625 -60.96875 "/></g></g></g><g fill="#ffffff" fill-opacity="1"><g transform="translate(1667.042019, 1386.807312)"><g><path d="M 147.265625 -65.640625 C 147.265625 -65.148438 147.019531 -61.707031 146.53125 -55.3125 L 46.46875 -55.3125 C 48.269531 -47.125 52.53125 -40.648438 59.25 -35.890625 C 65.96875 -31.140625 74.328125 -28.765625 84.328125 -28.765625 C 91.210938 -28.765625 97.316406 -29.785156 102.640625 -31.828125 C 107.972656 -33.878906 112.929688 -37.117188 117.515625 -41.546875 L 137.921875 -19.421875 C 125.460938 -5.160156 107.269531 1.96875 83.34375 1.96875 C 68.425781 1.96875 55.226562 -0.9375 43.75 -6.75 C 32.28125 -12.570312 23.429688 -20.644531 17.203125 -30.96875 C 10.984375 -41.300781 7.875 -53.023438 7.875 -66.140625 C 7.875 -79.085938 10.945312 -90.765625 17.09375 -101.171875 C 23.238281 -111.578125 31.675781 -119.6875 42.40625 -125.5 C 53.144531 -131.320312 65.148438 -134.234375 78.421875 -134.234375 C 91.378906 -134.234375 103.101562 -131.445312 113.59375 -125.875 C 124.082031 -120.300781 132.316406 -112.3125 138.296875 -101.90625 C 144.273438 -91.5 147.265625 -79.410156 147.265625 -65.640625 Z M 78.671875 -105.234375 C 69.984375 -105.234375 62.6875 -102.769531 56.78125 -97.84375 C 50.882812 -92.925781 47.28125 -86.207031 45.96875 -77.6875 L 111.125 -77.6875 C 109.8125 -86.050781 106.203125 -92.734375 100.296875 -97.734375 C 94.398438 -102.734375 87.191406 -105.234375 78.671875 -105.234375 Z M 78.671875 -105.234375 "/></g></g></g><g fill="#ffffff" fill-opacity="1"><g transform="translate(1810.858283, 1386.807312)"><g><path d="M 62.203125 1.96875 C 51.222656 1.96875 40.488281 0.617188 30 -2.078125 C 19.507812 -4.785156 11.148438 -8.191406 4.921875 -12.296875 L 17.703125 -39.828125 C 23.597656 -36.054688 30.722656 -32.984375 39.078125 -30.609375 C 47.441406 -28.234375 55.640625 -27.046875 63.671875 -27.046875 C 79.898438 -27.046875 88.015625 -31.0625 88.015625 -39.09375 C 88.015625 -42.863281 85.800781 -45.566406 81.375 -47.203125 C 76.945312 -48.835938 70.144531 -50.234375 60.96875 -51.390625 C 50.15625 -53.023438 41.222656 -54.90625 34.171875 -57.03125 C 27.128906 -59.164062 21.023438 -62.9375 15.859375 -68.34375 C 10.691406 -73.757812 8.109375 -81.460938 8.109375 -91.453125 C 8.109375 -99.816406 10.523438 -107.234375 15.359375 -113.703125 C 20.203125 -120.179688 27.253906 -125.222656 36.515625 -128.828125 C 45.773438 -132.429688 56.710938 -134.234375 69.328125 -134.234375 C 78.671875 -134.234375 87.972656 -133.207031 97.234375 -131.15625 C 106.492188 -129.113281 114.15625 -126.289062 120.21875 -122.6875 L 107.4375 -95.390625 C 95.800781 -101.953125 83.097656 -105.234375 69.328125 -105.234375 C 61.140625 -105.234375 54.992188 -104.082031 50.890625 -101.78125 C 46.796875 -99.488281 44.75 -96.539062 44.75 -92.9375 C 44.75 -88.832031 46.957031 -85.960938 51.375 -84.328125 C 55.800781 -82.691406 62.851562 -81.132812 72.53125 -79.65625 C 83.34375 -77.851562 92.191406 -75.925781 99.078125 -73.875 C 105.960938 -71.832031 111.945312 -68.101562 117.03125 -62.6875 C 122.113281 -57.28125 124.65625 -49.742188 124.65625 -40.078125 C 124.65625 -31.878906 122.195312 -24.582031 117.28125 -18.1875 C 112.363281 -11.800781 105.191406 -6.84375 95.765625 -3.3125 C 86.335938 0.207031 75.148438 1.96875 62.203125 1.96875 Z M 62.203125 1.96875 "/></g></g></g><g fill="#ffffff" fill-opacity="1"><g transform="translate(1930.090195, 1386.807312)"><g><path d="M 280.53125 -172.109375 L 224.21875 0 L 181.4375 0 L 143.578125 -116.53125 L 104.484375 0 L 61.953125 0 L 5.40625 -172.109375 L 46.71875 -172.109375 L 85.5625 -51.140625 L 126.125 -172.109375 L 163 -172.109375 L 202.34375 -50.15625 L 242.421875 -172.109375 Z M 280.53125 -172.109375 "/></g></g></g><g fill="#ffffff" fill-opacity="1"><g transform="translate(2204.694981, 1386.807312)"><g><path d="M 147.265625 -65.640625 C 147.265625 -65.148438 147.019531 -61.707031 146.53125 -55.3125 L 46.46875 -55.3125 C 48.269531 -47.125 52.53125 -40.648438 59.25 -35.890625 C 65.96875 -31.140625 74.328125 -28.765625 84.328125 -28.765625 C 91.210938 -28.765625 97.316406 -29.785156 102.640625 -31.828125 C 107.972656 -33.878906 112.929688 -37.117188 117.515625 -41.546875 L 137.921875 -19.421875 C 125.460938 -5.160156 107.269531 1.96875 83.34375 1.96875 C 68.425781 1.96875 55.226562 -0.9375 43.75 -6.75 C 32.28125 -12.570312 23.429688 -20.644531 17.203125 -30.96875 C 10.984375 -41.300781 7.875 -53.023438 7.875 -66.140625 C 7.875 -79.085938 10.945312 -90.765625 17.09375 -101.171875 C 23.238281 -111.578125 31.675781 -119.6875 42.40625 -125.5 C 53.144531 -131.320312 65.148438 -134.234375 78.421875 -134.234375 C 91.378906 -134.234375 103.101562 -131.445312 113.59375 -125.875 C 124.082031 -120.300781 132.316406 -112.3125 138.296875 -101.90625 C 144.273438 -91.5 147.265625 -79.410156 147.265625 -65.640625 Z M 78.671875 -105.234375 C 69.984375 -105.234375 62.6875 -102.769531 56.78125 -97.84375 C 50.882812 -92.925781 47.28125 -86.207031 45.96875 -77.6875 L 111.125 -77.6875 C 109.8125 -86.050781 106.203125 -92.734375 100.296875 -97.734375 C 94.398438 -102.734375 87.191406 -105.234375 78.671875 -105.234375 Z M 78.671875 -105.234375 "/></g></g></g></svg>