<svg xmlns="http://www.w3.org/2000/svg" xmlns:xlink="http://www.w3.org/1999/xlink" width="6000" zoomAndPan="magnify" viewBox="0 0 4500 1499.999933" height="2000" preserveAspectRatio="xMidYMid meet" version="1.0"><defs><g/><clipPath id="c7e1f91496"><path d="M 2524.445312 163.195312 L 2689.058594 163.195312 L 2689.058594 327.8125 L 2524.445312 327.8125 Z M 2524.445312 163.195312 " clip-rule="nonzero"/></clipPath><clipPath id="01411972b3"><path d="M 2606.75 163.195312 C 2561.292969 163.195312 2524.445312 200.046875 2524.445312 245.503906 C 2524.445312 290.960938 2561.292969 327.8125 2606.75 327.8125 C 2652.207031 327.8125 2689.058594 290.960938 2689.058594 245.503906 C 2689.058594 200.046875 2652.207031 163.195312 2606.75 163.195312 Z M 2606.75 163.195312 " clip-rule="nonzero"/></clipPath><clipPath id="4efde29058"><path d="M 1984.519531 463.132812 L 3427.902344 463.132812 L 3427.902344 824.894531 L 1984.519531 824.894531 Z M 1984.519531 463.132812 " clip-rule="nonzero"/></clipPath></defs><g clip-path="url(#c7e1f91496)"><g clip-path="url(#01411972b3)"><path fill="#f1a830" d="M 2524.445312 163.195312 L 2689.058594 163.195312 L 2689.058594 327.8125 L 2524.445312 327.8125 Z M 2524.445312 163.195312 " fill-opacity="1" fill-rule="nonzero"/></g></g><path fill="#0c2043" d="M 2281.171875 1174.324219 C 2253.011719 1167.863281 2158.375 1143.394531 2053.582031 1127.695312 C 2046.195312 1071.375 2047.578125 1067.222656 2016.652344 1036.753906 C 2035.117188 1049.679688 2032.808594 1139.238281 2026.347656 1186.789062 C 2025.882812 1146.625 2013.421875 1127.238281 2006.03125 1118.925781 C 1959.40625 1105.539062 1903.085938 1102.308594 1826.449219 1106.921875 C 1855.074219 1061.683594 1860.613281 1023.824219 1843.070312 993.355469 C 1880.460938 990.125 1951.554688 1001.203125 2055.425781 1026.597656 C 2071.582031 1036.292969 2106.667969 1040.445312 2118.210938 1093.539062 C 2117.746094 1070.914062 2114.054688 1055.222656 2102.976562 1038.601562 C 2143.601562 1049.21875 2188.84375 1061.683594 2238.238281 1075.996094 C 2281.171875 1107.386719 2295.484375 1140.164062 2281.171875 1174.324219 Z M 2204.078125 211.324219 C 2220.234375 218.25 2230.855469 239.484375 2233.160156 265.796875 L 2251.167969 265.796875 C 2255.785156 279.644531 2255.320312 298.113281 2251.167969 320.734375 C 2258.554688 303.191406 2261.785156 284.261719 2259.476562 265.796875 C 2256.246094 235.789062 2241.933594 213.167969 2233.164062 211.324219 Z M 2186.074219 293.5 C 2191.152344 259.796875 2181.917969 220.554688 2156.527344 211.324219 C 2133.90625 209.476562 2136.675781 213.167969 2129.289062 218.710938 C 2135.289062 227.480469 2139.90625 236.714844 2138.984375 247.792969 C 2136.210938 237.640625 2132.523438 225.171875 2125.59375 219.632812 L 2090.972656 220.554688 C 2097.4375 233.019531 2084.046875 260.722656 2078.96875 271.339844 C 2085.894531 280.109375 2086.355469 290.726562 2086.816406 299.5 C 2086.351562 279.648438 2090.96875 271.339844 2101.128906 274.109375 C 2106.207031 261.183594 2112.207031 259.339844 2119.59375 269.492188 C 2133.90625 267.648438 2143.136719 270.417969 2146.832031 278.265625 C 2150.0625 284.726562 2155.140625 288.886719 2162.066406 290.269531 C 2165.757812 292.578125 2168.988281 299.039062 2171.761719 310.121094 C 2171.761719 303.195312 2170.839844 297.195312 2168.53125 292.117188 C 2174.070312 288.878906 2180.070312 289.339844 2186.074219 293.5 Z M 2352.265625 188.242188 C 2374.425781 192.859375 2395.664062 239.023438 2397.96875 281.957031 C 2403.972656 241.792969 2378.121094 186.855469 2352.265625 188.242188 Z M 2259.472656 197.476562 C 2301.945312 192.859375 2313.488281 299.960938 2277.480469 341.511719 C 2307.949219 293.957031 2295.023438 206.707031 2259.472656 197.476562 Z M 1785.363281 269.492188 C 1813.523438 255.640625 1840.296875 235.789062 1867.074219 208.550781 C 1908.625 172.082031 1950.628906 124.070312 2008.335938 155.925781 C 1992.640625 138.382812 1966.789062 136.996094 1943.707031 143.921875 C 1898.464844 157.308594 1850.453125 199.78125 1819.0625 212.246094 C 1762.28125 233.484375 1702.722656 244.5625 1642.25 245.023438 C 1627.015625 257.027344 1611.320312 269.492188 1596.082031 283.339844 C 1669.488281 299.039062 1729.960938 296.730469 1785.363281 269.492188 Z M 1790.902344 286.570312 C 1789.054688 288.417969 1786.285156 290.726562 1783.054688 293.03125 C 1779.824219 314.269531 1764.589844 323.5 1757.199219 313.347656 C 1764.589844 313.347656 1772.4375 304.574219 1778.4375 291.648438 C 1755.816406 301.804688 1733.65625 308.730469 1716.113281 312.421875 C 1717.960938 322.117188 1723.960938 329.964844 1735.042969 336.429688 C 1742.429688 340.585938 1750.738281 345.199219 1759.972656 349.820312 C 1772.898438 360.898438 1784.902344 374.75 1795.519531 392.292969 C 1818.140625 390.449219 1815.835938 355.820312 1843.53125 324.894531 C 1860.613281 307.8125 1869.847656 285.652344 1872.15625 257.953125 C 1867.539062 245.488281 1869.847656 234.410156 1879.082031 225.640625 C 1862.457031 246.867188 1827.371094 269.492188 1790.902344 286.570312 Z M 2041.578125 234.867188 C 2040.65625 235.789062 2039.730469 236.714844 2038.804688 237.640625 C 2018.492188 253.796875 1996.332031 263.027344 1972.328125 266.261719 C 1962.632812 263.492188 1953.863281 251.027344 1945.554688 227.945312 C 1943.707031 210.402344 1919.242188 203.480469 1905.851562 209.019531 C 1911.855469 209.019531 1916.929688 209.019531 1926.167969 213.171875 C 1934.9375 216.402344 1940.015625 223.328125 1940.9375 233.484375 C 1949.246094 256.109375 1958.480469 269.035156 1967.714844 271.34375 C 1991.71875 268.570312 2013.878906 258.878906 2034.191406 243.179688 C 2037.882812 239.945312 2040.191406 237.175781 2041.578125 234.867188 Z M 2076.199219 217.324219 L 2076.199219 216.863281 L 2075.738281 216.863281 L 2075.273438 216.398438 L 2074.8125 216.398438 L 2074.8125 215.941406 C 2067.886719 210.402344 2056.347656 207.628906 2040.1875 206.707031 L 2037.878906 206.707031 L 2037.414062 207.171875 L 2033.710938 207.171875 L 2033.25 207.632812 L 2031.398438 207.632812 L 2031.398438 208.09375 L 2029.546875 208.09375 L 2029.546875 208.554688 L 2028.621094 208.554688 L 2028.15625 209.019531 L 2027.230469 209.019531 L 2027.230469 209.480469 L 2026.769531 209.480469 C 2023.074219 211.328125 2021.691406 214.097656 2021.691406 217.792969 C 2021.691406 218.253906 2021.691406 218.714844 2021.691406 219.175781 L 1994.453125 220.5625 C 1988.914062 214.101562 1981.0625 210.40625 1972.292969 209.945312 L 1971.371094 190.554688 C 1989.835938 193.328125 2030.460938 193.328125 2023.074219 163.78125 C 2021.691406 157.316406 2016.613281 150.855469 2008.765625 144.851562 C 1984.296875 128.234375 1945.519531 131.925781 1910.433594 151.777344 L 1899.8125 140.699219 C 1891.503906 145.777344 1883.195312 149.933594 1874.882812 153.625 C 1883.195312 149.472656 1889.195312 144.394531 1892.425781 138.390625 C 1872.574219 99.152344 1857.804688 69.605469 1849.03125 49.753906 C 1845.800781 34.058594 1840.261719 25.746094 1832.875 23.902344 C 1768.242188 -0.105469 1704.996094 3.128906 1626.515625 41.445312 C 1609.4375 55.757812 1609.4375 82.070312 1669.449219 89.457031 C 1612.203125 87.613281 1596.507812 65.453125 1609.894531 49.292969 C 1595.582031 56.679688 1589.121094 81.148438 1589.121094 89.457031 C 1499.101562 114.386719 1398.921875 233.027344 1553.574219 280.582031 L 1535.109375 290.738281 C 1527.261719 283.347656 1516.644531 278.734375 1503.253906 275.964844 C 1482.480469 277.351562 1459.859375 289.355469 1435.390625 311.972656 C 1450.164062 293.507812 1467.707031 280.117188 1483.402344 275.042969 C 1446.007812 275.964844 1417.390625 288.890625 1397.996094 314.28125 C 1413.230469 316.589844 1422.929688 321.667969 1428.46875 329.515625 C 1402.15625 318.898438 1370.300781 316.125 1332.445312 321.207031 C 1317.671875 210.410156 1258.578125 215.488281 1220.726562 286.582031 C 1241.5 256.578125 1290.433594 221.949219 1304.746094 277.8125 C 1268.738281 222.875 1225.34375 291.203125 1216.109375 315.207031 L 1116.855469 323.054688 C 1021.292969 323.976562 948.351562 445.851562 898.03125 688.21875 C 842.175781 811.019531 831.09375 910.734375 864.332031 987.832031 C 868.488281 997.527344 873.101562 1007.222656 878.644531 1015.992188 C 962.664062 1105.089844 1071.152344 1142.945312 1203.644531 1129.09375 C 1217.035156 1175.722656 1236.421875 1212.652344 1262.277344 1239.429688 C 1265.046875 1230.199219 1268.738281 1221.425781 1272.894531 1213.117188 C 1271.046875 1224.199219 1269.664062 1235.277344 1268.742188 1245.894531 C 1290.898438 1266.667969 1316.753906 1280.515625 1346.757812 1287.441406 C 1346.296875 1283.746094 1345.835938 1279.59375 1345.371094 1275.902344 C 1346.296875 1280.054688 1347.679688 1283.746094 1349.066406 1287.90625 C 1364.765625 1291.597656 1381.84375 1293.445312 1400.308594 1292.984375 C 1401.695312 1274.054688 1402.15625 1255.128906 1402.15625 1236.203125 C 1390.152344 1246.359375 1380.457031 1258.824219 1372.148438 1273.597656 C 1343.523438 1265.285156 1297.359375 1255.128906 1284.433594 1231.585938 C 1318.132812 1227.890625 1366.609375 1224.199219 1397.539062 1200.65625 C 1344.910156 1209.425781 1290.894531 1196.5 1247.964844 1164.648438 C 1293.667969 1171.574219 1340.292969 1160.957031 1378.148438 1134.644531 C 1326.445312 1154.03125 1268.742188 1153.570312 1217.035156 1132.335938 L 1277.050781 1128.179688 C 1341.21875 1121.257812 1370.304688 1094.941406 1363.839844 1049.238281 C 1376.304688 1013.6875 1405.851562 972.140625 1452.476562 924.59375 L 1607.128906 797.179688 C 1596.976562 836.878906 1584.972656 908.4375 1571.582031 1011.382812 L 1608.976562 979.992188 C 1611.285156 889.507812 1623.289062 819.800781 1644.0625 770.867188 C 1663.453125 769.480469 1680.070312 755.632812 1694.382812 729.320312 C 1705.460938 730.242188 1723.925781 730.703125 1749.316406 731.628906 L 1792.710938 735.78125 C 1803.792969 753.785156 1821.335938 768.558594 1845.339844 780.5625 C 1839.339844 794.410156 1821.796875 804.566406 1793.636719 810.566406 C 1777.9375 830.882812 1768.707031 856.269531 1766.859375 887.203125 C 1763.167969 925.519531 1694.382812 993.382812 1560.042969 1091.25 C 1646.832031 1065.859375 1720.695312 1015.078125 1794.097656 950.445312 C 1800.558594 985.996094 1777.019531 1026.617188 1723.925781 1073.246094 C 1678.6875 1120.335938 1601.128906 1160.035156 1491.257812 1192.351562 C 1454.785156 1203.890625 1427.085938 1215.894531 1405.851562 1232.972656 C 1417.855469 1282.832031 1425.238281 1334.078125 1427.085938 1384.855469 C 1430.78125 1389.011719 1434.933594 1392.703125 1439.089844 1396.398438 C 1441.863281 1397.78125 1444.628906 1399.167969 1446.9375 1400.550781 C 1459.402344 1360.386719 1463.09375 1321.609375 1458.015625 1284.214844 C 1479.710938 1332.6875 1487.5625 1383.929688 1482.019531 1438.40625 C 1482.484375 1439.328125 1482.941406 1440.710938 1483.40625 1441.636719 C 1516.183594 1361.769531 1537.417969 1303.140625 1547.117188 1264.824219 C 1539.726562 1326.222656 1549.886719 1383.929688 1565.582031 1439.785156 C 1587.28125 1408.855469 1595.585938 1364.535156 1596.511719 1305.445312 C 1581.742188 1305.910156 1567.429688 1305.445312 1552.65625 1305.445312 L 1596.511719 1298.058594 C 1596.976562 1270.820312 1595.589844 1240.351562 1593.742188 1206.652344 C 1608.054688 1233.429688 1616.824219 1262.511719 1620.054688 1294.367188 L 1646.828125 1290.210938 C 1649.136719 1277.285156 1650.984375 1263.898438 1651.910156 1250.046875 C 1652.832031 1263.898438 1654.214844 1276.824219 1656.523438 1288.828125 L 1685.609375 1284.210938 C 1685.609375 1270.363281 1685.144531 1258.820312 1684.222656 1248.664062 C 1685.144531 1260.667969 1686.53125 1272.207031 1687.917969 1283.746094 L 1704.996094 1280.976562 C 1709.148438 1258.355469 1716.078125 1235.734375 1725.769531 1214.5 C 1725.769531 1236.195312 1727.15625 1256.972656 1729 1277.28125 C 1771.011719 1270.359375 1813.019531 1263.433594 1855.03125 1256.507812 C 1855.492188 1243.582031 1855.492188 1230.65625 1855.03125 1217.730469 C 1858.261719 1230.195312 1861.03125 1242.660156 1863.800781 1255.125 L 1920.121094 1245.890625 C 1902.117188 1252.816406 1884.113281 1258.816406 1865.648438 1264.820312 C 1875.804688 1315.601562 1880.882812 1367.304688 1881.34375 1419.472656 C 1886.421875 1418.085938 1891.039062 1416.242188 1896.113281 1414.394531 C 1911.8125 1370.074219 1916.886719 1327.144531 1911.347656 1285.59375 C 1927.507812 1322.0625 1935.816406 1359.921875 1936.738281 1399.621094 C 1943.664062 1396.851562 1950.585938 1394.082031 1957.511719 1391.3125 C 1978.75 1337.296875 1992.597656 1295.75 1999.984375 1266.207031 C 1996.292969 1300.367188 2004.601562 1334.066406 2011.0625 1368.230469 C 2026.296875 1361.304688 2041.53125 1353.917969 2057.6875 1346.070312 C 2062.769531 1306.371094 2059.539062 1259.742188 2047.070312 1208.039062 C 2066.921875 1246.355469 2076.152344 1289.75 2074.308594 1338.222656 C 2079.386719 1335.453125 2084.925781 1332.683594 2090.464844 1329.914062 C 2098.3125 1306.371094 2103.390625 1280.058594 2104.777344 1251.898438 C 2107.085938 1276.828125 2110.316406 1298.523438 2115.394531 1316.988281 C 2122.785156 1312.832031 2130.628906 1308.679688 2138.476562 1304.523438 C 2138.941406 1282.828125 2138.476562 1264.824219 2137.09375 1250.050781 C 2138.476562 1268.515625 2140.324219 1286.058594 2142.171875 1302.679688 C 2163.40625 1291.136719 2185.566406 1278.671875 2207.726562 1266.207031 C 2281.128906 1225.582031 2311.597656 1182.1875 2300.054688 1136.023438 C 2289.898438 1094.933594 2262.199219 1065.386719 2222.960938 1052.925781 C 2178.179688 1039.074219 2089.542969 1017.375 1957.976562 989.214844 C 1963.976562 951.824219 1967.671875 908.425781 1968.128906 859.03125 C 1966.746094 865.03125 1957.511719 852.566406 1940.433594 821.636719 C 1971.363281 839.179688 1996.753906 835.027344 2017.527344 808.246094 C 2041.070312 752.386719 2050.304688 669.292969 2044.765625 558.957031 C 2036.917969 510.945312 2036.457031 465.242188 2043.378906 420.460938 L 2044.765625 477.242188 C 2056.769531 420.460938 2156.484375 414.917969 2149.558594 383.527344 C 2156.945312 380.753906 2162.949219 373.832031 2166.636719 362.289062 C 2179.566406 363.675781 2189.261719 356.289062 2196.644531 340.589844 L 2242.347656 338.746094 C 2251.117188 346.59375 2261.277344 352.132812 2273.738281 351.207031 L 2372.535156 347.515625 C 2419.160156 318.894531 2426.085938 225.636719 2372.535156 188.246094 C 2367.917969 185.015625 2360.992188 184.550781 2355.914062 185.015625 L 2265.894531 190.09375 C 2251.582031 191.480469 2240.039062 196.558594 2232.652344 205.328125 L 2146.324219 206.714844 C 2136.167969 205.789062 2131.554688 209.484375 2125.550781 215.945312 L 2084.925781 216.867188 C 2093.695312 232.566406 2080.3125 260.722656 2075.230469 270.882812 C 2089.542969 294.425781 2081.234375 311.507812 2062.769531 331.359375 C 2079.847656 309.660156 2084.003906 294.886719 2069.691406 270.882812 C 2073.386719 263.035156 2076.15625 255.648438 2078.925781 248.261719 C 2084.511719 234.40625 2083.585938 224.25 2076.199219 217.324219 Z M 1889.234375 1433.308594 C 1886.460938 1432.847656 1884.152344 1432.386719 1881.386719 1431.925781 C 1881.386719 1438.390625 1880.921875 1445.3125 1880.921875 1451.773438 C 1883.695312 1445.773438 1886.460938 1439.3125 1889.234375 1433.308594 Z M 1825.0625 1443.003906 C 1823.679688 1443.003906 1821.832031 1443.003906 1820.445312 1443.003906 C 1819.984375 1448.542969 1819.984375 1454.082031 1819.523438 1460.085938 C 1821.371094 1454.082031 1823.21875 1448.542969 1825.0625 1443.003906 Z M 1820.449219 1436.539062 C 1822.753906 1436.078125 1825.0625 1435.617188 1827.371094 1434.695312 C 1843.527344 1380.683594 1852.761719 1324.359375 1855.070312 1268.039062 C 1836.605469 1273.117188 1818.597656 1278.195312 1800.132812 1282.351562 C 1814.910156 1332.207031 1821.832031 1384.375 1820.449219 1436.539062 Z M 1800.597656 725.136719 L 1723.964844 706.671875 C 1714.269531 664.664062 1677.335938 633.730469 1633.941406 632.347656 C 1661.640625 640.195312 1684.261719 660.046875 1695.804688 686.363281 C 1675.03125 674.359375 1649.636719 672.050781 1627.019531 679.898438 C 1621.015625 679.4375 1634.40625 681.285156 1666.257812 685.4375 L 1615.9375 734.835938 L 1612.242188 749.609375 L 1411.425781 913.957031 C 1396.191406 903.800781 1387.882812 888.105469 1386.035156 867.332031 C 1385.574219 866.867188 1390.191406 813.78125 1399.425781 708.0625 C 1401.269531 696.984375 1413.738281 675.746094 1437.742188 644.351562 C 1438.664062 640.660156 1428.507812 649.890625 1405.886719 672.511719 L 1407.273438 640.199219 C 1438.664062 606.960938 1476.980469 581.109375 1519.453125 564.027344 C 1480.675781 574.179688 1444.667969 591.722656 1412.8125 615.730469 C 1409.582031 567.71875 1416.964844 519.246094 1434.972656 474.46875 C 1502.371094 357.207031 1579.464844 306.425781 1666.257812 322.121094 C 1692.570312 328.125 1722.117188 340.128906 1755.355469 358.128906 C 1778.898438 384.90625 1794.59375 404.296875 1802.90625 416.296875 C 1789.515625 411.21875 1775.207031 409.835938 1758.585938 412.144531 C 1788.59375 415.835938 1809.828125 423.222656 1822.296875 433.378906 C 1835.683594 467.542969 1857.84375 500.320312 1890.160156 532.632812 C 1914.625 548.332031 1928.9375 562.640625 1932.167969 575.566406 C 1930.78125 592.648438 1934.011719 609.730469 1941.863281 624.964844 C 1939.09375 614.347656 1938.171875 602.804688 1939.09375 590.800781 C 1948.324219 593.109375 1956.636719 598.1875 1963.097656 604.648438 C 1981.101562 630.964844 1976.484375 661.894531 1949.707031 696.980469 C 1944.167969 680.824219 1934.472656 666.511719 1921.085938 655.894531 C 1932.164062 671.589844 1939.09375 690.054688 1940.9375 709.445312 C 1927.089844 731.601562 1901.699219 754.683594 1866.152344 779.152344 C 1843.992188 774.996094 1826.449219 758.378906 1813.523438 728.367188 C 1825.0625 708.054688 1872.613281 680.820312 1902.160156 650.808594 C 1900.773438 648.039062 1898.929688 645.273438 1897.542969 642.5 C 1865.6875 670.664062 1819.984375 698.824219 1800.597656 725.136719 Z M 1909.082031 642.964844 C 1918.316406 632.347656 1924.316406 621.269531 1925.703125 610.1875 C 1921.085938 618.5 1913.238281 627.269531 1904.46875 636.042969 C 1905.851562 638.351562 1907.699219 640.65625 1909.082031 642.964844 Z M 1543.917969 212.710938 C 1552.226562 199.78125 1567.460938 172.542969 1577.15625 161.003906 C 1579.464844 162.390625 1574.851562 179.007812 1577.15625 180.855469 C 1563.308594 207.167969 1570.234375 224.25 1597.472656 231.175781 C 1585.007812 239.484375 1572.082031 251.027344 1558.691406 265.796875 C 1440.972656 237.175781 1490.828125 143.460938 1561 112.992188 C 1538.378906 124.996094 1501.90625 172.542969 1499.601562 195.625 C 1510.21875 179.46875 1534.222656 141.613281 1572.078125 122.683594 C 1554.074219 145.304688 1529.605469 165.617188 1518.066406 213.167969 C 1528.21875 197.472656 1560.074219 155.925781 1572.539062 142.074219 C 1568.847656 145.304688 1540.6875 205.785156 1543.917969 212.710938 Z M 1715.652344 111.605469 C 1690.722656 116.6875 1664.410156 118.992188 1638.097656 118.53125 C 1663.027344 121.761719 1720.730469 126.378906 1746.121094 126.378906 C 1715.195312 132.839844 1671.796875 134.6875 1641.328125 136.535156 C 1660.71875 140.226562 1726.273438 142.535156 1758.589844 137.917969 C 1720.734375 146.230469 1675.492188 154.539062 1636.714844 153.613281 C 1659.335938 159.152344 1741.96875 168.386719 1765.972656 165.152344 C 1718.425781 176.695312 1676.875 174.851562 1625.167969 177.617188 C 1683.800781 191.929688 1722.578125 196.546875 1807.058594 177.15625 C 1752.585938 207.160156 1676.410156 219.164062 1598.390625 191.003906 C 1597.929688 165.613281 1599.777344 130.527344 1603.007812 84.824219 C 1627.472656 106.984375 1669.949219 113.910156 1716.574219 105.597656 Z M 864.371094 987.816406 C 998.710938 1015.515625 1000.554688 856.710938 981.167969 765.765625 C 957.621094 655.894531 989.011719 554.332031 1067.496094 470.3125 C 1080.882812 456 1202.296875 326.738281 1116.890625 323.042969 C 1201.832031 323.96875 1121.507812 422.300781 1096.578125 451.382812 C 1017.636719 544.171875 978.398438 630.039062 995.019531 750.066406 C 998.710938 779.152344 1005.171875 804.082031 1008.867188 829.011719 C 1016.714844 883.023438 996.863281 979.507812 943.3125 1003.976562 C 942.851562 1016.4375 948.851562 1027.519531 959.011719 1034.445312 C 944.699219 1031.671875 933.15625 1020.59375 929.464844 1006.285156 C 922.539062 1008.589844 915.152344 1009.976562 907.769531 1010.4375 C 911 1021.054688 918.386719 1029.824219 927.617188 1035.367188 C 913.769531 1032.136719 902.6875 1021.976562 898.074219 1009.050781 C 882.835938 1010.441406 871.757812 1003.511719 864.371094 987.816406 Z M 1797.824219 1282.8125 C 1776.128906 1287.429688 1753.507812 1291.582031 1730.886719 1295.277344 C 1737.351562 1346.058594 1749.351562 1391.761719 1765.507812 1432.847656 C 1774.742188 1385.296875 1791.824219 1338.210938 1797.824219 1282.8125 Z M 1702.726562 1298.96875 C 1698.574219 1299.433594 1694.878906 1299.894531 1691.1875 1300.355469 C 1693.957031 1316.050781 1697.648438 1331.289062 1702.269531 1345.597656 C 1700.878906 1329.898438 1700.878906 1314.203125 1702.726562 1298.96875 Z M 1685.644531 1300.816406 C 1676.875 1301.738281 1668.101562 1302.199219 1659.332031 1303.125 C 1664.410156 1328.054688 1672.257812 1347.90625 1682.414062 1363.140625 C 1684.257812 1339.59375 1685.183594 1318.820312 1685.644531 1300.816406 Z M 1644.097656 1304.046875 C 1636.25 1304.507812 1628.402344 1304.96875 1621.015625 1304.96875 C 1621.9375 1326.207031 1621.015625 1347.902344 1617.785156 1370.984375 C 1629.785156 1351.136719 1638.554688 1328.515625 1644.097656 1304.046875 Z M 1594.699219 297.1875 C 1556.382812 308.730469 1517.140625 331.8125 1477.902344 367.359375 C 1506.523438 329.964844 1548.535156 305.039062 1594.699219 297.1875 Z M 1527.761719 298.113281 C 1502.371094 306.882812 1474.667969 326.734375 1444.664062 356.746094 C 1444.664062 348.898438 1444.664062 345.667969 1443.742188 337.816406 C 1467.746094 307.808594 1500.0625 286.109375 1527.761719 298.113281 Z M 2149.601562 383.519531 C 2150.523438 373.363281 2150.988281 362.746094 2150.988281 353.050781 C 2152.832031 362.285156 2153.296875 371.980469 2151.910156 382.132812 C 2150.988281 383.058594 2150.066406 383.058594 2149.601562 383.519531 Z M 1943.246094 423.222656 C 1940.476562 427.835938 1944.632812 497.085938 1928.933594 548.328125 C 1925.703125 534.015625 1932.164062 508.164062 1931.707031 480.003906 C 1922.007812 494.316406 1910.46875 510.007812 1897.082031 526.167969 C 1874 503.085938 1854.609375 476.773438 1838.914062 448.609375 C 1829.21875 427.375 1816.292969 410.753906 1800.597656 398.753906 C 1813.527344 390.445312 1820.914062 381.675781 1822.757812 372.4375 C 1828.296875 357.667969 1834.761719 347.050781 1842.609375 340.585938 C 1840.300781 345.199219 1826.453125 362.285156 1826.453125 389.519531 L 1826.453125 408.445312 C 1827.375 413.0625 1831.070312 414.910156 1837.992188 414.449219 Z M 2168.070312 354.433594 C 2175.917969 341.96875 2176.839844 329.964844 2170.378906 317.960938 C 2174.996094 322.578125 2177.304688 329.503906 2176.839844 336.890625 C 2176.378906 343.816406 2173.144531 350.28125 2168.070312 354.433594 Z M 1296.011719 314.273438 L 1253.539062 314.730469 C 1264.15625 278.265625 1300.167969 240.40625 1296.011719 314.273438 Z M 2094.664062 383.058594 C 2084.96875 382.132812 2075.277344 386.75 2070.199219 389.519531 C 2073.890625 384.902344 2082.660156 382.132812 2090.972656 380.75 C 2089.125 366.4375 2089.125 360.898438 2091.433594 341.511719 C 2092.820312 363.667969 2089.589844 362.285156 2094.664062 383.058594 Z M 2123.289062 368.285156 C 2125.597656 332.738281 2102.976562 314.734375 2100.667969 285.1875 C 2109.898438 316.578125 2129.75 322.582031 2123.289062 368.285156 Z M 2148.21875 333.660156 C 2138.523438 298.574219 2122.367188 298.574219 2114.054688 277.339844 C 2129.292969 301.34375 2144.527344 293.5 2148.21875 333.660156 Z M 2148.21875 333.660156 " fill-opacity="1" fill-rule="evenodd"/><path fill="#0c2043" d="M 784.042969 1409.300781 C 784.507812 1402.839844 1088.734375 1395.914062 1089.65625 1388.527344 C 1092.886719 1352.980469 1100.273438 1307.738281 1107.660156 1278.195312 C 1109.96875 1336.824219 1113.664062 1375.601562 1119.203125 1394.992188 C 1132.128906 1368.679688 1140.4375 1339.589844 1143.207031 1310.046875 C 1144.128906 1346.054688 1151.054688 1373.292969 1163.980469 1392.683594 L 1168.132812 1375.601562 C 1170.441406 1362.675781 1173.671875 1350.210938 1176.902344 1335.4375 L 1177.367188 1337.746094 C 1180.597656 1324.355469 1183.828125 1310.507812 1187.0625 1296.199219 C 1191.679688 1340.980469 1195.835938 1373.757812 1200.453125 1394.992188 C 1205.066406 1373.757812 1209.222656 1340.515625 1213.839844 1294.355469 C 1222.152344 1329.902344 1229.996094 1361.753906 1236.921875 1391.300781 C 1249.847656 1371.910156 1256.773438 1344.671875 1257.695312 1308.664062 C 1260.46875 1336.363281 1267.851562 1363.601562 1279.394531 1388.992188 C 1280.78125 1377.449219 1282.167969 1365.445312 1283.546875 1352.0625 L 1286.78125 1366.832031 C 1289.550781 1345.136719 1291.859375 1315.128906 1293.242188 1276.8125 C 1298.320312 1295.738281 1303.859375 1318.359375 1308.011719 1340.519531 C 1309.859375 1325.285156 1312.167969 1307.742188 1314.015625 1287.890625 C 1322.324219 1322.976562 1329.710938 1355.292969 1337.097656 1384.839844 C 1349.558594 1365.449219 1356.488281 1337.75 1357.871094 1302.203125 C 1360.640625 1329.902344 1368.023438 1357.140625 1379.566406 1382.070312 C 1380.953125 1370.988281 1382.335938 1358.527344 1383.257812 1345.597656 L 1386.953125 1359.910156 C 1389.722656 1338.210938 1392.03125 1308.207031 1393.414062 1269.890625 C 1402.183594 1305.898438 1404.03125 1368.222656 1420.191406 1394.074219 C 1415.574219 1398.226562 1407.726562 1401.460938 1397.566406 1404.230469 C 1400.339844 1417.617188 1403.570312 1430.082031 1406.339844 1442.085938 C 1419.265625 1422.699219 1426.1875 1395.460938 1427.113281 1359.910156 C 1429.417969 1379.761719 1433.574219 1399.613281 1440.496094 1419 C 1448.34375 1388.53125 1451.117188 1346.523438 1457.578125 1319.746094 C 1458.5 1339.597656 1459.421875 1357.140625 1460.808594 1372.835938 C 1461.730469 1359.449219 1462.195312 1344.21875 1463.117188 1327.597656 C 1469.117188 1351.605469 1471.886719 1388.070312 1477.886719 1417.15625 C 1485.734375 1396.382812 1491.277344 1374.222656 1493.585938 1352.0625 C 1494.507812 1387.613281 1501.433594 1414.847656 1513.898438 1434.238281 C 1521.285156 1405.15625 1529.132812 1372.835938 1537.445312 1337.753906 C 1539.289062 1357.601562 1541.136719 1375.144531 1542.984375 1390.378906 C 1547.597656 1367.757812 1553.136719 1345.597656 1557.753906 1326.210938 C 1560.0625 1384.839844 1563.757812 1424.078125 1569.296875 1443.472656 C 1582.222656 1416.695312 1590.53125 1388.070312 1593.300781 1358.527344 C 1594.683594 1394.078125 1601.609375 1421.773438 1614.074219 1441.164062 C 1621.460938 1411.617188 1628.84375 1379.300781 1637.15625 1344.214844 C 1639.003906 1363.144531 1640.847656 1379.765625 1642.695312 1394.074219 C 1645.925781 1374.683594 1649.617188 1355.757812 1653.3125 1340.984375 C 1654.234375 1366.371094 1655.621094 1388.070312 1657.003906 1406.074219 C 1659.3125 1388.996094 1661.621094 1369.144531 1663.929688 1345.597656 C 1669.933594 1370.53125 1675.472656 1394.074219 1681.011719 1416.234375 C 1684.703125 1402.382812 1687.472656 1387.609375 1688.855469 1373.300781 C 1689.78125 1393.152344 1692.089844 1410.230469 1696.246094 1425.003906 C 1703.167969 1407.925781 1706.863281 1386.226562 1707.785156 1359.914062 C 1709.628906 1378.84375 1713.789062 1396.84375 1719.789062 1414.851562 C 1723.941406 1396.84375 1728.097656 1378.378906 1732.714844 1358.992188 C 1734.5625 1376.996094 1736.410156 1393.613281 1738.253906 1407.925781 C 1740.5625 1387.152344 1742.40625 1360.835938 1743.332031 1327.601562 C 1747.949219 1345.605469 1752.105469 1368.6875 1755.796875 1392.230469 C 1757.183594 1381.613281 1758.566406 1370.074219 1759.492188 1357.609375 C 1766.878906 1387.617188 1773.339844 1415.777344 1779.339844 1441.167969 C 1782.574219 1441.632812 1785.804688 1442.09375 1789.496094 1442.09375 C 1797.808594 1424.085938 1802.421875 1400.542969 1803.347656 1371.921875 C 1806.117188 1396.851562 1812.117188 1421.320312 1821.8125 1444.398438 L 1830.121094 1444.863281 C 1834.273438 1423.167969 1837.046875 1388.082031 1838.890625 1339.605469 C 1843.96875 1358.996094 1849.507812 1381.152344 1853.664062 1403.3125 C 1855.507812 1388.078125 1857.816406 1370.535156 1859.664062 1350.683594 C 1867.976562 1385.769531 1875.820312 1418.085938 1882.746094 1447.632812 C 1889.671875 1437.476562 1894.75 1425.007812 1897.980469 1410.238281 C 1893.363281 1407.929688 1889.671875 1406.082031 1886.902344 1403.777344 C 1903.058594 1377.921875 1904.910156 1315.140625 1913.679688 1279.589844 C 1915.988281 1338.222656 1919.679688 1377 1925.21875 1396.851562 C 1929.835938 1386.695312 1933.988281 1376.539062 1937.683594 1366.382812 C 1938.144531 1356.226562 1938.605469 1344.6875 1939.066406 1333.140625 C 1940.453125 1338.222656 1941.375 1343.761719 1942.300781 1349.300781 C 1945.53125 1337.296875 1947.839844 1324.371094 1949.222656 1311.90625 C 1950.144531 1347.453125 1957.070312 1374.6875 1969.996094 1394.082031 C 1976.921875 1364.996094 1984.769531 1332.679688 1993.078125 1297.59375 C 1994.925781 1317.445312 1996.773438 1334.988281 1999.082031 1350.222656 C 2003.234375 1327.601562 2008.777344 1305.441406 2013.390625 1286.054688 C 2015.699219 1344.683594 2019.855469 1383.921875 2025.394531 1403.3125 C 2028.625 1395.925781 2031.859375 1388.542969 2034.628906 1380.691406 C 2037.859375 1363.609375 2041.09375 1347.449219 2044.324219 1334.527344 C 2044.324219 1338.679688 2044.324219 1342.835938 2044.789062 1346.992188 C 2046.632812 1337.757812 2048.480469 1328.0625 2049.402344 1318.371094 C 2050.328125 1353.917969 2057.25 1381.617188 2070.175781 1401.003906 C 2077.101562 1371.457031 2084.949219 1339.144531 2093.257812 1304.058594 C 2097.414062 1349.761719 2102.027344 1383.460938 2106.648438 1404.699219 C 2111.265625 1383.460938 2115.417969 1350.222656 2120.035156 1305.445312 C 2128.347656 1340.53125 2135.734375 1372.84375 2143.117188 1402.390625 C 2143.582031 1401.003906 2144.503906 1400.082031 2145.425781 1398.695312 C 2146.8125 1384.382812 2148.65625 1368.691406 2150.507812 1351.148438 L 2156.046875 1373.769531 C 2160.660156 1358.535156 2162.96875 1340.53125 2163.890625 1319.757812 C 2166.664062 1349.300781 2174.972656 1377.921875 2187.898438 1404.699219 C 2190.203125 1395.929688 2192.511719 1383.003906 2194.359375 1365.917969 L 2194.359375 1365.457031 C 2196.667969 1345.144531 2198.054688 1319.289062 2199.441406 1287.4375 C 2206.828125 1316.984375 2214.210938 1362.226562 2217.445312 1397.773438 C 2217.445312 1398.695312 2220.675781 1399.621094 2225.757812 1400.082031 C 2227.601562 1381.617188 2228.988281 1359.457031 2229.910156 1333.140625 C 2234.527344 1352.070312 2240.066406 1374.691406 2244.679688 1396.851562 C 2246.527344 1381.617188 2248.375 1364.074219 2250.683594 1344.222656 C 2255.300781 1364.996094 2259.914062 1384.847656 2264.53125 1403.3125 C 2271.917969 1403.777344 2280.230469 1404.234375 2288.539062 1404.699219 C 2291.769531 1391.308594 2293.617188 1376.074219 2294.542969 1358.53125 C 2295.925781 1374.6875 2299.15625 1390.386719 2303.773438 1405.621094 L 2324.546875 1406.542969 C 2326.855469 1386.230469 2328.699219 1359.453125 2330.085938 1326.21875 C 2336.546875 1352.070312 2336.089844 1380.691406 2342.550781 1407.46875 C 2426.570312 1411.625 2522.59375 1415.316406 2523.054688 1419.011719 C 2485.664062 1450.402344 2170.816406 1462.867188 1945.53125 1466.558594 C 1834.738281 1499.800781 1392.941406 1477.640625 1329.695312 1472.5625 C 1329.695312 1471.636719 1334.308594 1470.714844 1341.699219 1470.253906 C 1166.734375 1469.332031 898.050781 1440.246094 850.039062 1436.554688 C 850.503906 1430.089844 1161.191406 1429.164062 1161.652344 1421.78125 C 1002.402344 1422.230469 822.824219 1412.535156 784.042969 1409.300781 Z M 2321.796875 1428.230469 L 2311.640625 1428.695312 C 2313.949219 1433.773438 2316.257812 1438.847656 2318.566406 1443.464844 C 2319.488281 1439.3125 2320.875 1434.234375 2321.796875 1428.230469 Z M 2280.25 1429.617188 L 2271.019531 1429.617188 L 2273.789062 1441.15625 C 2276.09375 1437.464844 2277.941406 1433.773438 2280.25 1429.617188 Z M 2222.542969 1430.539062 L 2210.082031 1431 C 2212.386719 1437.464844 2215.160156 1443.929688 2218.390625 1450.390625 C 2219.773438 1444.851562 2221.15625 1438.390625 2222.542969 1430.539062 Z M 2182.378906 1431 L 2169.453125 1431 L 2173.605469 1447.621094 C 2176.839844 1442.542969 2179.609375 1437.003906 2182.378906 1431 Z M 2140.832031 1431 L 2133.445312 1431 C 2134.367188 1438.847656 2135.753906 1445.773438 2137.136719 1451.316406 C 2138.0625 1445.773438 2139.445312 1438.847656 2140.832031 1431 Z M 2105.285156 1430.539062 C 2100.203125 1430.539062 2095.589844 1430.539062 2090.972656 1430.539062 C 2093.742188 1437.464844 2096.972656 1443.464844 2100.667969 1449.003906 Z M 2065.121094 1429.617188 C 2060.507812 1429.617188 2055.890625 1429.617188 2051.273438 1429.152344 C 2052.660156 1438.386719 2054.042969 1445.773438 2055.890625 1451.773438 C 2059.121094 1444.386719 2062.351562 1437.003906 2065.121094 1429.617188 Z M 2027.730469 1428.230469 C 2000.492188 1426.84375 1975.101562 1425 1953.863281 1422.230469 C 1956.171875 1433.308594 1958.945312 1443.464844 1962.632812 1451.3125 C 1999.566406 1449.003906 2025.878906 1447.160156 2026.34375 1444.847656 C 2026.804688 1439.3125 2027.265625 1433.773438 2027.730469 1428.230469 Z M 1927.546875 1449.46875 C 1929.855469 1442.078125 1931.703125 1431.925781 1933.085938 1418.996094 C 1926.164062 1418.074219 1919.238281 1416.691406 1913.699219 1414.84375 C 1917.394531 1426.84375 1922.007812 1438.390625 1927.546875 1449.46875 Z M 1493.597656 1461.929688 C 1487.136719 1461.007812 1481.132812 1460.085938 1475.132812 1458.699219 C 1470.054688 1460.546875 1463.589844 1462.394531 1456.667969 1463.316406 Z M 1357.871094 1412.074219 C 1351.410156 1412.996094 1344.023438 1413.921875 1336.636719 1414.382812 C 1340.789062 1427.308594 1345.40625 1439.3125 1351.40625 1451.3125 C 1353.71875 1442.542969 1356.027344 1429.152344 1357.871094 1412.074219 Z M 1320.480469 1416.230469 C 1313.554688 1416.691406 1306.628906 1417.152344 1298.78125 1417.617188 C 1301.554688 1428.234375 1303.863281 1438.851562 1306.628906 1449.007812 C 1312.632812 1439.769531 1317.25 1428.695312 1320.480469 1416.230469 Z M 1275.703125 1418.996094 C 1272.007812 1418.996094 1268.3125 1419.460938 1264.160156 1419.460938 C 1266.007812 1432.386719 1267.855469 1443.46875 1269.699219 1452.699219 C 1271.542969 1443.464844 1273.851562 1432.386719 1275.703125 1418.996094 Z M 1240.617188 1420.382812 C 1234.15625 1420.382812 1227.226562 1420.84375 1220.300781 1420.84375 C 1223.53125 1431.925781 1228.148438 1442.078125 1233.691406 1450.390625 C 1236 1440.695312 1238.308594 1430.539062 1240.617188 1420.382812 Z M 1201.375 1421.304688 C 1195.371094 1421.304688 1189.371094 1421.304688 1182.910156 1421.304688 C 1184.753906 1434.695312 1186.601562 1445.308594 1188.910156 1452.699219 C 1193.527344 1442.542969 1198.144531 1431.925781 1201.375 1421.304688 Z M 1201.375 1421.304688 " fill-opacity="1" fill-rule="evenodd"/><g clip-path="url(#4efde29058)"><path fill="#0c2043" d="M 1984.519531 463.132812 L 3427.332031 463.132812 L 3427.332031 824.894531 L 1984.519531 824.894531 Z M 1984.519531 463.132812 " fill-opacity="1" fill-rule="nonzero"/></g><g fill="#0c2043" fill-opacity="1"><g transform="translate(2353.719281, 1056.649437)"><g/></g></g><g fill="#0c2043" fill-opacity="1"><g transform="translate(2414.246288, 1056.649437)"><g/></g></g><g fill="#0c2043" fill-opacity="1"><g transform="translate(2474.773295, 1056.649437)"><g/></g></g><g fill="#0c2043" fill-opacity="1"><g transform="translate(2535.300294, 1056.649437)"><g/></g></g><g fill="#0c2043" fill-opacity="1"><g transform="translate(2595.82731, 1056.649437)"><g/></g></g><g fill="#0c2043" fill-opacity="1"><g transform="translate(2656.354325, 1056.649437)"><g/></g></g><g fill="#0c2043" fill-opacity="1"><g transform="translate(2716.881341, 1056.649437)"><g/></g></g><g fill="#0c2043" fill-opacity="1"><g transform="translate(2777.408356, 1056.649437)"><g/></g></g><g fill="#0c2043" fill-opacity="1"><g transform="translate(2837.935372, 1056.649437)"><g/></g></g><g fill="#0c2043" fill-opacity="1"><g transform="translate(2898.530551, 1056.649437)"><g><path d="M 21.203125 -178.78125 L 62.578125 -178.78125 L 62.578125 -33.71875 L 152.21875 -33.71875 L 152.21875 0 L 21.203125 0 Z M 21.203125 -178.78125 "/></g></g></g><g fill="#0c2043" fill-opacity="1"><g transform="translate(3041.040043, 1056.649437)"><g><path d="M 73.8125 -139.453125 C 95.09375 -139.453125 111.4375 -134.382812 122.84375 -124.25 C 134.257812 -114.125 139.96875 -98.84375 139.96875 -78.40625 L 139.96875 0 L 102.671875 0 L 102.671875 -17.109375 C 95.179688 -4.335938 81.21875 2.046875 60.78125 2.046875 C 50.226562 2.046875 41.078125 0.257812 33.328125 -3.3125 C 25.578125 -6.894531 19.660156 -11.832031 15.578125 -18.125 C 11.492188 -24.425781 9.453125 -31.582031 9.453125 -39.59375 C 9.453125 -52.363281 14.257812 -62.40625 23.875 -69.71875 C 33.5 -77.039062 48.359375 -80.703125 68.453125 -80.703125 L 100.125 -80.703125 C 100.125 -89.390625 97.484375 -96.070312 92.203125 -100.75 C 86.921875 -105.4375 79.003906 -107.78125 68.453125 -107.78125 C 61.128906 -107.78125 53.929688 -106.628906 46.859375 -104.328125 C 39.796875 -102.035156 33.796875 -98.929688 28.859375 -95.015625 L 14.5625 -122.84375 C 22.050781 -128.125 31.03125 -132.210938 41.5 -135.109375 C 51.976562 -138.003906 62.75 -139.453125 73.8125 -139.453125 Z M 70.75 -24.78125 C 77.5625 -24.78125 83.601562 -26.351562 88.875 -29.5 C 94.15625 -32.644531 97.90625 -37.285156 100.125 -43.421875 L 100.125 -57.46875 L 72.796875 -57.46875 C 56.441406 -57.46875 48.265625 -52.101562 48.265625 -41.375 C 48.265625 -36.269531 50.265625 -32.226562 54.265625 -29.25 C 58.273438 -26.269531 63.769531 -24.78125 70.75 -24.78125 Z M 70.75 -24.78125 "/></g></g></g><g fill="#0c2043" fill-opacity="1"><g transform="translate(3186.869749, 1056.649437)"><g><path d="M 99.609375 -139.453125 C 112.378906 -139.453125 124 -136.515625 134.46875 -130.640625 C 144.9375 -124.765625 153.148438 -116.503906 159.109375 -105.859375 C 165.078125 -95.222656 168.0625 -82.835938 168.0625 -68.703125 C 168.0625 -54.566406 165.078125 -42.175781 159.109375 -31.53125 C 153.148438 -20.894531 144.9375 -12.640625 134.46875 -6.765625 C 124 -0.890625 112.378906 2.046875 99.609375 2.046875 C 80.710938 2.046875 66.320312 -3.910156 56.4375 -15.828125 L 56.4375 0 L 18.390625 0 L 18.390625 -189.515625 L 58.234375 -189.515625 L 58.234375 -122.84375 C 68.273438 -133.914062 82.066406 -139.453125 99.609375 -139.453125 Z M 92.71875 -30.65625 C 102.925781 -30.65625 111.304688 -34.101562 117.859375 -41 C 124.421875 -47.894531 127.703125 -57.128906 127.703125 -68.703125 C 127.703125 -80.285156 124.421875 -89.523438 117.859375 -96.421875 C 111.304688 -103.316406 102.925781 -106.765625 92.71875 -106.765625 C 82.5 -106.765625 74.109375 -103.316406 67.546875 -96.421875 C 60.992188 -89.523438 57.71875 -80.285156 57.71875 -68.703125 C 57.71875 -57.128906 60.992188 -47.894531 67.546875 -41 C 74.109375 -34.101562 82.5 -30.65625 92.71875 -30.65625 Z M 92.71875 -30.65625 "/></g></g></g><g fill="#ffffff" fill-opacity="1"><g transform="translate(2353.719281, 726.808897)"><g><path d="M 107.015625 -63.34375 L 107.015625 0 L 65.640625 0 L 65.640625 -63.84375 L -3.578125 -178.78125 L 40.359375 -178.78125 L 88.109375 -99.359375 L 135.875 -178.78125 L 176.484375 -178.78125 Z M 107.015625 -63.34375 "/></g></g></g><g fill="#ffffff" fill-opacity="1"><g transform="translate(2514.617452, 726.808897)"><g><path d="M 152.984375 -68.1875 C 152.984375 -67.675781 152.726562 -64.101562 152.21875 -57.46875 L 48.265625 -57.46875 C 50.140625 -48.957031 54.566406 -42.226562 61.546875 -37.28125 C 68.535156 -32.34375 77.222656 -29.875 87.609375 -29.875 C 94.753906 -29.875 101.09375 -30.9375 106.625 -33.0625 C 112.164062 -35.195312 117.316406 -38.5625 122.078125 -43.15625 L 143.28125 -20.171875 C 130.34375 -5.359375 111.441406 2.046875 86.578125 2.046875 C 71.085938 2.046875 57.378906 -0.972656 45.453125 -7.015625 C 33.535156 -13.066406 24.34375 -21.453125 17.875 -32.171875 C 11.40625 -42.898438 8.171875 -55.078125 8.171875 -68.703125 C 8.171875 -82.148438 11.363281 -94.28125 17.75 -105.09375 C 24.132812 -115.90625 32.898438 -124.332031 44.046875 -130.375 C 55.203125 -136.425781 67.675781 -139.453125 81.46875 -139.453125 C 94.925781 -139.453125 107.101562 -136.554688 118 -130.765625 C 128.894531 -124.972656 137.445312 -116.671875 143.65625 -105.859375 C 149.875 -95.046875 152.984375 -82.488281 152.984375 -68.1875 Z M 81.734375 -109.3125 C 72.703125 -109.3125 65.117188 -106.753906 58.984375 -101.640625 C 52.859375 -96.535156 49.117188 -89.554688 47.765625 -80.703125 L 115.4375 -80.703125 C 114.082031 -89.390625 110.335938 -96.328125 104.203125 -101.515625 C 98.078125 -106.710938 90.585938 -109.3125 81.734375 -109.3125 Z M 81.734375 -109.3125 "/></g></g></g><g fill="#ffffff" fill-opacity="1"><g transform="translate(2664.022768, 726.808897)"><g><path d="M 64.625 2.046875 C 53.207031 2.046875 42.050781 0.640625 31.15625 -2.171875 C 20.257812 -4.984375 11.578125 -8.515625 5.109375 -12.765625 L 18.390625 -41.375 C 24.515625 -37.457031 31.921875 -34.265625 40.609375 -31.796875 C 49.296875 -29.328125 57.8125 -28.09375 66.15625 -28.09375 C 83.007812 -28.09375 91.4375 -32.265625 91.4375 -40.609375 C 91.4375 -44.523438 89.132812 -47.332031 84.53125 -49.03125 C 79.9375 -50.738281 72.875 -52.1875 63.34375 -53.375 C 52.101562 -55.082031 42.820312 -57.039062 35.5 -59.25 C 28.175781 -61.46875 21.832031 -65.382812 16.46875 -71 C 11.101562 -76.625 8.421875 -84.628906 8.421875 -95.015625 C 8.421875 -103.691406 10.929688 -111.394531 15.953125 -118.125 C 20.984375 -124.851562 28.304688 -130.085938 37.921875 -133.828125 C 47.546875 -137.578125 58.914062 -139.453125 72.03125 -139.453125 C 81.726562 -139.453125 91.382812 -138.382812 101 -136.25 C 110.625 -134.125 118.585938 -131.191406 124.890625 -127.453125 L 111.609375 -99.09375 C 99.523438 -105.90625 86.332031 -109.3125 72.03125 -109.3125 C 63.507812 -109.3125 57.117188 -108.117188 52.859375 -105.734375 C 48.609375 -103.347656 46.484375 -100.285156 46.484375 -96.546875 C 46.484375 -92.285156 48.78125 -89.300781 53.375 -87.59375 C 57.976562 -85.894531 65.300781 -84.28125 75.34375 -82.75 C 86.582031 -80.875 95.773438 -78.875 102.921875 -76.75 C 110.078125 -74.625 116.289062 -70.75 121.5625 -65.125 C 126.84375 -59.507812 129.484375 -51.675781 129.484375 -41.625 C 129.484375 -33.113281 126.929688 -25.535156 121.828125 -18.890625 C 116.722656 -12.253906 109.273438 -7.101562 99.484375 -3.4375 C 89.691406 0.21875 78.070312 2.046875 64.625 2.046875 Z M 64.625 2.046875 "/></g></g></g><g fill="#ffffff" fill-opacity="1"><g transform="translate(2787.888324, 726.808897)"><g><path d="M 291.421875 -178.78125 L 232.9375 0 L 188.484375 0 L 149.15625 -121.0625 L 108.546875 0 L 64.359375 0 L 5.625 -178.78125 L 48.53125 -178.78125 L 88.875 -53.125 L 131.015625 -178.78125 L 169.328125 -178.78125 L 210.203125 -52.109375 L 251.828125 -178.78125 Z M 291.421875 -178.78125 "/></g></g></g><g fill="#ffffff" fill-opacity="1"><g transform="translate(3073.164924, 726.808897)"><g><path d="M 152.984375 -68.1875 C 152.984375 -67.675781 152.726562 -64.101562 152.21875 -57.46875 L 48.265625 -57.46875 C 50.140625 -48.957031 54.566406 -42.226562 61.546875 -37.28125 C 68.535156 -32.34375 77.222656 -29.875 87.609375 -29.875 C 94.753906 -29.875 101.09375 -30.9375 106.625 -33.0625 C 112.164062 -35.195312 117.316406 -38.5625 122.078125 -43.15625 L 143.28125 -20.171875 C 130.34375 -5.359375 111.441406 2.046875 86.578125 2.046875 C 71.085938 2.046875 57.378906 -0.972656 45.453125 -7.015625 C 33.535156 -13.066406 24.34375 -21.453125 17.875 -32.171875 C 11.40625 -42.898438 8.171875 -55.078125 8.171875 -68.703125 C 8.171875 -82.148438 11.363281 -94.28125 17.75 -105.09375 C 24.132812 -115.90625 32.898438 -124.332031 44.046875 -130.375 C 55.203125 -136.425781 67.675781 -139.453125 81.46875 -139.453125 C 94.925781 -139.453125 107.101562 -136.554688 118 -130.765625 C 128.894531 -124.972656 137.445312 -116.671875 143.65625 -105.859375 C 149.875 -95.046875 152.984375 -82.488281 152.984375 -68.1875 Z M 81.734375 -109.3125 C 72.703125 -109.3125 65.117188 -106.753906 58.984375 -101.640625 C 52.859375 -96.535156 49.117188 -89.554688 47.765625 -80.703125 L 115.4375 -80.703125 C 114.082031 -89.390625 110.335938 -96.328125 104.203125 -101.515625 C 98.078125 -106.710938 90.585938 -109.3125 81.734375 -109.3125 Z M 81.734375 -109.3125 "/></g></g></g></svg>