<svg xmlns="http://www.w3.org/2000/svg" version="1.1" xmlns:xlink="http://www.w3.org/1999/xlink" width="1500" height="1500" viewBox="0 0 1500 1500"><rect width="1500" height="1500" x="0" y="0" id="background" stroke="transparent" fill="#ffffff"></rect><svg xml:space="preserve" width="1000" height="1000" data-version="2" data-id="lg_4DJKdScSZs5gOMzHQD" viewBox="0 0 571 126" x="250" y="250"><rect width="100%" height="100%" fill="transparent"></rect><rect width="125.97" height="567.28" x="-62.98" y="-283.64" rx="60.39" ry="60.39" transform="matrix(0 -.9872 .9872 0 285.5 63)"></rect><path fill="#ffffff" d="M87.64 51.82q-2-4.28-.89-7.69 1.1-3.42 4.21-4.8 3.17-1.38 6.45-.03 3.28 1.34 4.79 5.62.76 2.14 1.11 4.93.34 2.8.79 5.39.45 2.58 1.52 4.27 1.07 1.69 3.35 1.69 2.27 0 3.38-1.69 1.1-1.69 1.55-4.27.45-2.59.76-5.39.31-2.79 1.07-4.93 1.58-4.28 4.83-5.62 3.24-1.35 6.41.03 3.11 1.38 4.21 4.8 1.11 3.41-.89 7.69-1.04 2.21-2.73 4.17-1.69 1.97-3.69 4.04-2 2.07-4 4.59t-3.66 5.76v11.8q0 2.83-2.07 4.69-2.07 1.87-5.17 1.87-3.04 0-5.15-1.87-2.1-1.86-2.1-4.69v-11.8q-1.59-3.24-3.59-5.76-2-2.52-4-4.59t-3.73-4.04q-1.72-1.96-2.76-4.17"></path><rect width="45.92" height="50.45" x="-22.96" y="-25.22" fill="none" rx="0" ry="0" transform="translate(109.47 64.02)"></rect><path fill="#ffffff" d="M152.16 88.6q-3.38 0-6.45-.62-3.07-.62-5.38-2.38-2.32-1.76-3.66-5.11-1.35-3.35-1.35-8.8 0-4.9 1.31-8.42 1.32-3.51 3.14-5.58 1.83-2.07 3.35-2.56l-.34-1.31h-1.18q-3.17 0-5-2.03-1.83-2.04-1.9-5.56-.07-3.45 1.83-5.52 1.9-2.07 5.07-2.07h24.77q7.39 0 7.39 6.9 0 3.11-1.8 4.97-1.79 1.86-5.59 1.86h-14.28q-2.55 0-2.55 2.97v5.17q3.45-.75 7.21-1.79 3.76-1.03 7.14-1.03 3.24 0 4.86 1.41 1.63 1.41 1.63 3.83 0 2.48-1.63 3.9-1.62 1.41-4.86 1.48-3.38.07-7.18-.96-3.79-1.04-7.24-1.8v9.04q0 1.31.72 1.83.73.52 2.31-.38 3.45-2 6.77-3.21 3.31-1.21 6.48-1.21 4.49 0 6.8 2.35 2.31 2.35 2.31 6.14 0 4.07-2.45 6.28t-7.9 2.21Z"></path><rect width="40.18" height="49.96" x="-20.09" y="-24.98" fill="none" rx="0" ry="0" transform="translate(155.27 64.12)"></rect><path fill="#ffffff" d="M198.94 88.94q-3.86 0-7.76-.79T184 85.8q-3.27-1.55-5.28-3.79-2-2.24-2-5.21 0-3.8 2.42-6.07 2.41-2.28 5.66-2.14 2.55.07 5.1 1.07 2.56 1 5.21 1.96 2.66.97 5.35.97 2.69 0 3.73-.69 1.03-.69 1.03-1.86 0-1.38-1.45-2.28-1.45-.9-3.66-1.38l-3.38-.83q-5.24-1.24-9.38-2.79-4.14-1.56-6.52-4.14-2.38-2.59-2.38-6.94 0-4.76 2.62-7.76t7.11-4.38q4.48-1.38 10-1.38 5.66 0 9.94 1.17 4.28 1.17 6.66 3.38t2.38 5.38q0 3.39-1.83 5.28-1.83 1.9-4.87 1.9-2 0-4.17-.69t-4.55-1.35q-2.38-.65-5.08-.65-2.41 0-3.65.72-1.24.73-1.24 1.9 0 1.45 1.65 2.14 1.66.69 5.45 1.66l3.87.89q4.76 1.18 8.35 2.83 3.58 1.66 5.58 4.35 2.01 2.69 2.01 7.04 0 5.24-2.49 8.52-2.48 3.28-6.9 4.79-4.41 1.52-10.35 1.52"></path><rect width="41.96" height="50.78" x="-20.98" y="-25.39" fill="none" rx="0" ry="0" transform="translate(198.2 64.05)"></rect><path fill="#ffffff" d="M254 88.94q-4.21 0-6.62-2.07-2.42-2.07-3.83-5.69-1.41-3.62-2.66-8.25l-6.69-24.84q-.76-2.89.35-5.41 1.1-2.52 4.34-3.35 3.04-.83 5.38.42 2.35 1.24 3.18 4.34l6.21 22.7q.83 2.97 1.76 4.35.93 1.38 3 .9 1.93-.49 2.07-2.14.14-1.66-.69-4.69l-4.42-16.77q-.89-3.45.24-5.97 1.14-2.52 4.52-3.28 3.45-.82 5.56.87 2.1 1.69 2.86 4.72l5.59 22.01q.9 3.38 1.97 4.56 1.07 1.17 2.79.69 1.93-.55 1.87-2.18-.07-1.62-.49-4.72-.62-4.83-1.07-7.94-.45-3.1-.69-5.17-.24-2.07-.24-3.8 0-3.86 2.28-6.59 2.28-2.72 6.21-2.72 4 0 6.07 2.45 2.07 2.45 2.07 6.72 0 2.76-.79 5.8-.8 3.04-1.56 5.73l-3.86 13.31q-1.31 4.56-2.59 8.18-1.27 3.62-3.41 5.73-2.14 2.1-6.07 2.1-4.77 0-7.46-2.96-2.69-2.97-4.14-9.73h-.48q-1.38 6.76-3.66 9.73-2.27 2.96-6.9 2.96"></path><rect width="61.25" height="50.28" x="-30.63" y="-25.14" fill="none" rx="0" ry="0" transform="translate(264.8 64.3)"></rect><path fill="#ffffff" d="M315.55 88.6q-3.38 0-6.45-.62-3.07-.62-5.38-2.38-2.31-1.76-3.66-5.11-1.34-3.35-1.34-8.8 0-4.9 1.31-8.42 1.31-3.51 3.14-5.58 1.82-2.07 3.34-2.56l-.34-1.31h-1.18q-3.17 0-5-2.03-1.83-2.04-1.9-5.56-.06-3.45 1.83-5.52 1.9-2.07 5.07-2.07h24.78q7.38 0 7.38 6.9 0 3.11-1.8 4.97-1.79 1.86-5.58 1.86h-14.29q-2.55 0-2.55 2.97v5.17q3.45-.75 7.21-1.79 3.76-1.03 7.14-1.03 3.24 0 4.87 1.41 1.62 1.41 1.62 3.83 0 2.48-1.62 3.9-1.63 1.41-4.87 1.48-3.38.07-7.17-.96-3.8-1.04-7.25-1.8v9.04q0 1.31.72 1.83.73.52 2.32-.38 3.45-2 6.76-3.21 3.31-1.21 6.48-1.21 4.49 0 6.8 2.35 2.31 2.35 2.31 6.14 0 4.07-2.45 6.28t-7.9 2.21Z"></path><rect width="40.18" height="49.96" x="-20.09" y="-24.98" fill="none" rx="0" ry="0" transform="translate(318.66 64.12)"></rect><path fill="#ffffff" d="M353.5 45.2q0-3.18 1.97-4.94 1.96-1.76 5.07-1.76 3.24 0 5.17 1.76 1.94 1.76 1.94 4.94v29.39q0 1.31.69 1.83t2.27-.38q3.45-2 6.14-3.21 2.7-1.21 5.94-1.21 4.48 0 6.76 2.35 2.28 2.35 2.28 6.14 0 4.07-2.45 6.28t-7.83 2.21h-14.22q-4.55 0-7.59-1.07-3.03-1.07-4.59-3.9-1.55-2.83-1.55-8.21Z"></path><rect width="38.23" height="50.1" x="-19.11" y="-25.05" fill="none" rx="0" ry="0" transform="translate(373.12 64.05)"></rect><path fill="#ffffff" d="M400.15 88.74q-4.63-.69-6.01-4.25-1.38-3.55.55-9l9.11-25.88q1.24-3.59 2.87-6.14 1.62-2.55 4.07-3.93 2.45-1.38 6.1-1.38 5.52 0 8.32 3.03 2.79 3.04 4.66 8.42l9.03 25.88q1.94 5.45.73 9-1.21 3.56-5.9 4.25-3.8.48-6.59-.9t-3.35-4.49q-.41-2.07-.1-3.45.31-1.38.59-2.2.2-.69.03-1.35-.17-.66-1.07-.66h-12.83q-.9 0-1.07.66-.17.66.1 1.35.28.82.55 2.2.28 1.38-.07 3.45-.55 3.11-3.24 4.49-2.69 1.38-6.48.9m21.73-22.71-3.59-11.24q-.14-.69-.45-1.07-.31-.38-1-.38t-1 .38q-.31.38-.51 1.07l-3.52 11.24Z"></path><rect width="47.25" height="50.87" x="-23.62" y="-25.43" fill="none" rx="0" ry="0" transform="translate(417.29 64.1)"></rect><path fill="#ffffff" d="M457.69 88.67q-3.17-.14-5.9-.9-2.72-.76-4.79-2.59-2.07-1.83-3.21-5.07-1.14-3.24-1.14-8.28 0-4.9 1.34-8.49 1.35-3.58 3.21-5.72 1.87-2.14 3.38-2.63l-.34-1.31h-1.17q-3.18 0-5.01-2.03-1.82-2.04-1.89-5.49-.07-3.45 1.82-5.55 1.9-2.11 5.08-2.11h18.97q7.45 0 10.77 3.56 3.31 3.55 3.31 9.21 0 4.55-2.11 7.59-2.1 3.03-6.31 3.66v1.03q4.55.21 7.42 3.14 2.86 2.93 2.86 8.66 0 6.21-3.59 9.83t-11.8 3.56Zm-1.86-30.98q0 1.51.55 2 .55.48 2.07.48h6.35q2.62 0 4-.79 1.38-.8 1.38-3.14 0-2.42-1.38-3.18-1.38-.76-4-.76h-6.35q-1.52 0-2.07.42-.55.41-.55 2Zm0 13.86q0 1.52.58 2.07.59.56 2.18.56h7.11q2.69 0 4.14-.97 1.44-.97 1.44-3.45 0-2.48-1.44-3.42-1.45-.93-4.14-.93h-7.11q-1.59 0-2.18.49-.58.48-.58 2Z"></path><rect width="41.83" height="50.25" x="-20.91" y="-25.13" fill="none" rx="0" ry="0" transform="translate(463.56 64.13)"></rect></svg></svg>